<!--?xml version="1.0" encoding="utf-8"?-->
<!-- Generator: Adobe Illustrator 23.0.1, SVG Export Plug-In . SVG Version: 6.00 Build 0)  -->
<svg version="1.1" id="Layer_1" xmlns="http://www.w3.org/2000/svg" xmlns:xlink="http://www.w3.org/1999/xlink" x="0px" y="0px" viewBox="0 0 296 540" style="" xml:space="preserve">
<style type="text/css">
	.st0{fill:none;stroke:#FDC1BA;stroke-miterlimit:10;}
</style>
    <path class="st0 TnVctsWo_0" d="M123.07,39.1c0,0,1.03-2,1.72-5.21c0.69-3.21,2.77-22.93,3.47-24.61c0.69-1.68,2.91-6.22,10.77-6.64
	c6.23-0.14,16.04-0.89,27.81,1.49c11.77,2.37,13.57,2.37,13.57,10.06c0,7.69,0.42,12.58,0,17.19c-0.42,4.61,1.43,10.93-1.29,13.64
	 M171.65,53.27c0,0-8.78,23.71,33.34,60.62c24.92,21.83,51.27,44.52,53.42,65.15c2.15,20.63,2.51,47.41,0.36,75.64
	c-2.15,28.23-11.83,110.75-17.93,161.06c-6.1,50.31-8.61,62.25-8.61,62.25 M161.97,53.09c0,0-5.56,24.61,7.53,46.09
	c15.35,25.19,40.64,51.15,44.46,79.62c3.83,28.47,5.26,115.82,3.83,153.46c-1.43,37.64-4.3,102.79-6.69,125.95
	c-2.39,23.16-2.39,48.26-2.39,48.26 M149.96,51.46c0,0-2.51,32.39,3.76,69.85c6.59,39.33,12.91,93.2,12.91,136.63
	c0,43.43,1.43,117.99,0,153.46c-1.43,35.47,13.51,114.85,13.51,114.85 M139.92,48.21c0,0,0.9,20.63-10.22,47.96
	c-13.77,33.84-31.91,39.81-30.48,74.56c1.43,34.74,5.02,121.25,9.32,178.07c4.3,56.82,13.62,116.9,14.7,146.22
	c1.08,29.32,0.84,34.87,0.84,34.87 M14.25,184.84c0,0-0.72,16.29,3.59,74.2c4.3,57.91,7.89,99.53,8.61,137.17
	c0.72,37.64,6.81,90.48,7.89,95.19 M129.16,46.58c0,0-0.9,41.8-31.73,65.87c-25.08,19.57-33.35,34.38-38.01,52.12
	c-4.66,17.73-0.72,36.19,0.36,57.19c1.08,20.99,3.23,105.32,3.23,144.05c0,38.73-4.66,93.02-2.15,115.82
	c2.51,22.8,3.59,33.3,3.59,33.3 M41.14,149.85c0,0,6.21,11.58,8.61,27.51c2.39,15.92,6.93,33.06,4.78,55.5
	c-2.15,22.44-1.67,41.26-9.56,46.09c-7.89,4.83-13.03-3.98-12.61-8.14 M38.81,186.83c0,0,2.87,17.19,4.12,29.68
	c1.25,12.49,0.72,21.72-1.97,36.55c-2.69,14.84-1.61,16.11-4.66,16.29c-3.05,0.18-3.94,1.45-3.94,1.45s2.51,4.52,7.89,3.08
	c5.38-1.45,5.93-10.6,8.43-32.21c2.15-18.64,0.18-23.34-1.61-39.63c-1.79-16.29-5.92-46.69-6.27-55.56
	c-0.36-8.87-5.2-18.64-5.2-18.64 M14.6,172.35c0,0,2.87,9.95,24.2,14.48l-1.25-14.48c0,0-1.61-16.65-2.51-29.13
	c-0.9-12.49,1.08-19.79,1.08-19.79 M20.34,139.11c0,0,1.61,18.94,2.33,29.8c0.72,10.86,0.72,12.31,0.72,12.31 M275.27,173.25
	c0,0,5.38,16.47,4.66,27.87c-0.72,11.4-3.76,29.32-5.2,34.02c-1.43,4.71-2.33,7.06-2.33,7.06 M278.98,161.91
	c0,0,3.35,8.32,4.66,27.02c1.32,18.7-5.38,51.76-5.38,51.76s8.37-9.41,9.68-21.35c1.32-11.94,0.72-39.57-4.06-50.55
	c-4.78-10.98-3.94-11.46-3.94-11.46 M282.09,149.61c0,0-2.27,8.81-4.3,14.36c-2.03,5.55-2.63,10.98-2.63,10.98l-1.2,3.86
	 M250.49,130.23c0,0,0.4-10.32,0.54-14.03c0.14-3.71-0.36-4.25,0.36-7.69c0.72-3.44,0.9-7.01,1.88-6.61
	c0.99,0.41,2.42,4.34,2.42,4.34s1.84,1.72,3.45,5.61c1.61,3.89,0.85,5.61,2.51,9.05c1.66,3.44,1.52,3.71,2.15,6.02
	c0.63,2.31,1.93,7.33,2.15,11.08c0.22,3.75,1.12,7.51,1.12,7.51s3.14,10.95,1.66,16.51s-4.12,13.07-4.12,13.07l-1.93,4.39
	 M235.59,122.46c0,0,0.36-1.93,1.55-4.46c1.2-2.53,2.27-3.98,2.03-6.27c-0.24-2.29-1.08-8.2,0.12-10.13
	c1.2-1.93,2.15-2.29,2.15-5.19s0.36-4.46,1.43-5.79c1.08-1.33-0.84-3.26,0.72-4.7c1.55-1.45,2.03-2.17,3.23-3.98
	c1.2-1.81,1.28-3.5,3.2-2.66c1.91,0.85,2.39-0.24,4.42,0.48c2.03,0.72,2.63,3.02,4.18,3.62c1.55,0.6,2.75,0.6,2.99,2.65
	c0.24,2.05,1.08,4.34,1.08,4.34s3.23,3.62,3.59,6.03c0.36,2.41,1.91,3.98,1.91,3.98s4.66,1.81,5.02,6.76
	c0.36,4.95-1.08,5.31,1.43,8.2c2.51,2.9,5.02,9.65,5.26,13.51c0.24,3.86-0.48,5.19,0.84,8.2c1.32,3.02,2.3,4.83,1.94,8.2
	c-0.36,3.38-1.08,3.98,0.24,6.88c1.31,2.9,8.61,19.06,9.8,32.21c1.2,13.15,1.91,34.14-4.42,47.53
	c-6.33,13.39-9.08,17.98-14.58,19.67c-1.55,2.53-1.67,4.22-0.84,5.67c0.84,1.45,2.15,4.34,1.31,7.24c-0.84,2.89-4.06,7.72-4.54,9.77
	c-0.48,2.05-0.72,3.5-0.72,3.5s0.12,1.93,1.67,3.14c1.55,1.21,1.79,3.38,1.31,5.67c-0.48,2.29,0,5.91-1.67,7.48
	c-1.67,1.57-1.91,1.93-1.91,3.86s1.43,4.71,1.67,7c0.24,2.29,0.48,5.19-0.84,7.12c-1.32,1.93-2.39,3.62-1.43,5.67
	c0.96,2.05,2.63,4.22,1.67,8.32c-0.96,4.1-1.67,3.62-2.39,5.07c-0.72,1.45-2.75,9.65-2.63,10.5c0.12,0.85,0.96,0.85,1.31,2.78
	c0.36,1.93,0.48,5.67-1.79,8.81c-2.27,3.14-3.59,5.43-3.59,7c0,1.57,4.9,9.05-2.87,16.29c-3.59,5.67-2.63,9.17-2.63,9.17l0.84,6.27
	c0,0-2.51,5.19-2.27,9.29c0.24,4.1-0.24,6.03-0.24,6.03l-3.35,9.05c0,0,0.48,6.03-0.72,10.38c-1.19,4.34-2.63,7.96-2.63,9.65
	c0,1.69-0.24,4.22-1.31,5.67c-1.08,1.45-2.63,5.79-2.63,5.79s2.03,3.74,0,7.96c-2.03,4.22-1.43,6.39-2.27,9.65
	c-0.84,3.26-2.27,5.79-2.51,8.08c-0.24,2.29,0.36,6.03-1.79,9.29c-2.15,3.26-4.42,7.72-4.42,7.72s-3.83,3.5-8.01,7.6
	c-4.18,4.1-7.53,9.77-12.31,13.75c-4.78,3.98-13.03,11.34-23.66,17.01c-10.64,5.67-26.65,6.64-35.38,7.48
	c-8.72,0.85-23.78,3.62-37.53-2.89c-13.74-6.52-17.57-1.93-21.87-3.02c-4.3-1.09-25.34-6.76-25.34-6.76s-6.81-4.46-14.82-7.72
	c-8.01-3.26-16.49-7-19.6-12.18c-3.11-5.19-5.26-13.75-5.26-13.75l-2.51-3.38c0,0-1.43-2.41-3.47-5.43
	c-2.03-3.02-3.23-3.02-3.7-7.36c-0.48-4.34-0.96-7.12-0.96-7.12s-4.54-5.79-4.18-14.36c0.36-8.57-1.91-8.93-2.39-13.03
	c-0.48-4.1-1.08-8.69,0.48-10.98c1.55-2.29,2.75-3.38,1.55-5.67c-1.19-2.29-2.87-5.67-2.15-10.5c0.72-4.83,1.55-9.05,0.48-11.7
	c-1.08-2.65-2.75-3.38-1.91-7.72c0.84-4.34,0.96-6.15-0.24-7.96c-1.2-1.81-3.23-6.52-1.67-10.98c1.55-4.46,2.03-6.64,0.84-9.89
	c-1.2-3.26-3.82-8.81-2.15-11.7c1.67-2.89,3.7-4.83,2.27-7.36c-1.43-2.53-4.9-6.15-2.75-11.58c2.15-5.43,0-10.5,0-10.5
	s-0.96-5.55-0.24-7.48c0.72-1.93,0.36-3.62,0.36-3.62s-4.42-5.19-2.39-6.15c2.03-0.97,4.18,1.45,3.59-3.26
	C6,297.52,3.13,294.14,5.16,291c2.03-3.14,4.66-7.12,2.27-12.43c-2.39-5.31-3.47-10.25-2.15-13.51c1.32-3.26,2.27-5.79,2.27-11.46
	c0-5.67,0.12-7-1.08-10.25c-1.2-3.26-3.47-11.46-1.91-13.63c1.55-2.17,4.18-2.41,2.75-6.15c-1.43-3.74-2.75-2.65-2.15-6.03
	c0.6-3.38,1.55-4.34,1.79-7.48c0.24-3.14-0.36-6.39-0.36-6.39s-1.91-7.12-1.08-9.53c0.84-2.41,1.55-1.21,2.15-5.31
	c0.6-4.1,0.24-8.69,0.24-8.69l0.12-4.83c0,0,2.39-5.55,1.91-9.05c-0.48-3.5-0.72-3.86-0.24-6.03c0.48-2.17,0.24-3.14,1.08-4.46
	c0.84-1.33,1.67-1.93,2.27-5.19c0.6-3.26,0.12-3.98,1.08-5.07c0.96-1.09,0.12-3.02,2.39-3.98c2.27-0.96,3.47,1.45,3.83-2.41
	c0.36-3.86,0.12-13.03-0.48-17.13c-0.6-4.1-1.79-6.51-1.67-10.25c0.12-3.74,0.24-2.29-0.36-7.84c-0.6-5.55-0.12-6.76-0.6-9.29
	c-0.48-2.53-0.6-4.59-0.6-4.59l0.72-3.86c0,0-2.03-6.39-0.72-8.81c1.32-2.41,4.54-3.35,6.81-3.35c2.27,0,6.9,0.72,7.14,4.34
	c0.24,3.62,0.24,3.23,1.08,4.92c0.84,1.69,1.08,2.41,0.48,4.22c-0.6,1.81-1.31,2.41-0.36,4.22c0.96,1.81,1.79,5.19,1.79,5.19
	s-1.2,4.71-0.72,6.88c0.48,2.17,3.02,6.15,3.02,10.62c0,4.46,0.24,9.05,0.24,9.05s6.1-2.56,5.83-3.47c-0.27-0.9-1.52-3.08-0.18-4.16
	c1.34-1.09,3.94-0.36,5.92-0.72c1.97-0.36,3.41-1.81,3.41-1.81s0.72-3.62,3.32-4.07c2.6-0.45,6.45,0.72,7.53-0.9
	c1.08-1.63,0.45-4.07,3.76-5.07c3.32-1,4.3,0.18,7.44-0.63c3.14-0.81,5.92-3.17,5.92-3.17s1.25-3.53,4.84-2.99
	c3.59,0.54,5.38-1.63,5.38-1.63s-1.43-3.08,3.14-3.71c4.57-0.63,6.45-1.36,7.53-2.9c1.08-1.54-1.61-2.9,2.33-4.16
	c3.94-1.27,6.45-1.9,6.63-3.35c0.18-1.45-2.06-3.44,0-4.8c2.06-1.36,3.05-3.35,3.05-3.35s-1.08-3.62,1.79-4.98
	c2.87-1.36,4.39-4.34,5.56-7.78c1.17-3.44-0.45-8.14-0.45-8.14s-3.32-4.43-1.61-7.69c1.7-3.26,3.32-4.8,8.43-5.25
	c5.11-0.45,10.4,1.36,10.4,1.36s4.27-0.48,11.56,1.33c7.29,1.81,10.64,3.26,15.18,3.14c4.54-0.12,10.93-0.24,15.59,0.48
	c4.66,0.72,9.68,4.01,9.92,6.78c0.24,2.77-0.36,2.41,0.24,5.55c0.6,3.14,1.91,2.77,1.43,5.79c-0.48,3.02-1.67,3.5-0.96,4.95
	c0.72,1.45,1.67,2.17,1.2,3.74c-0.48,1.57,0.66,6.37,0.66,6.37s0.92,8.45,1.88,10.01c0.96,1.57,2.99,3.38,2.99,3.38l3.35,6.64
	l5.98,4.46c0,0,1.43,4.46,4.54,4.46c3.11,0,6.69,0.12,8.01,2.65c1.32,2.53,2.99,4.71,2.99,4.71s3.59-0.12,5.26,0.97
	c1.67,1.09,3.94,1.45,5.02,3.5c1.08,2.05,3.62,2.9,3.62,2.9s2.39,1.45,4.78,1.45c2.39,0,5.62,1.69,5.62,1.69l3.35,5.55
	c0,0,4.43-1.67,4.93,5.01c0.24,3.2,0.15,0.97,1.73,3.44c0.93,1.45,6.17,2.62,7.05,4.01c0.96,1.5,2.78,4.68,2.78,4.68l1.28,3.5
	l3.02,5.79"></path>
    <path class="st0 TnVctsWo_1" d="M40.74,125.09c0,0,53.61,29.68,95.25,31.01s105.44,4.43,120.95-3.1c4.73-2.95,5.91-4.58,5.91-4.58"></path>
    <path class="st0 TnVctsWo_2" d="M88.3,99.83c0,0,21.56,9.75,37.81,11.81s55.82,7.09,67.05,3.84c11.22-3.25,15.65-5.32,15.65-5.32"></path>
    <path class="st0 TnVctsWo_3" d="M60.24,188.74c0,0,22.78,12.91,70,14.77c48.88,1.92,82.04-0.84,87.28-1.77c19.94-3.54,53.31-13.88,53.31-13.88"></path>
    <path class="st0 TnVctsWo_4" d="M54.52,232.85c0,0,55.63,15.84,94.77,17.17c15.52,0.53,31.9-1.77,45.19-5.76c13.29-3.99,35.44-5.32,42.53-7.09
	c7.09-1.77,22.15-8.42,27.91-10.63"></path>
    <path class="st0 TnVctsWo_5" d="M50.86,268.7c17.28,1.33,50.14,10.12,50.14,10.12l28.35,3.99l40.32,2.22c0,0,40.76,2.22,54.94-2.66
	c14.18-4.87,36.85-14.38,39.87-15.51c7.53-2.81,3.99-8.42,3.99-8.42"></path>
    <path class="st0 TnVctsWo_6" d="M10.62,305.99l21.27,5.91c0,0,23.63,9.45,45.49,7.97s42.24,0,51.98,0.59c9.75,0.59,49.62,1.48,49.62,1.48
	s34.56-5.32,45.49-6.5c10.93-1.18,32.19-6.79,34.26-9.75s3.96-7.54,6.79-7.68"></path>
    <path class="st0 TnVctsWo_7" d="M14.46,352.66c0,0,18.31,6.5,27.76,8.27c9.45,1.77,32.88,6.5,46.67,6.5c17.13,0,44.89,4.14,44.89,4.14
	l32.49,1.77l37.81-10.63c0,0,46.67-2.95,56.12-14.77"></path>
    <path class="st0 TnVctsWo_8" d="M19.77,388.1c0,0,17.13,14.18,31.31,18.31c14.18,4.14,38.99,7.09,50.21,7.68s37.22,9.45,60.25,7.09
	s43.12-8.86,43.12-8.86s40.17-11.81,46.67-19.49"></path>
    <path class="st0 TnVctsWo_9" d="M16.23,424.14l20.68,16.54l37.81,14.18c0,0,25.4,5.2,61.14,5.79s52.28-4.02,52.28-4.02s17,1.67,38.99-14.18
	c21.98-15.85,17.13-17.43,17.13-17.43"></path>
    <path class="st0 TnVctsWo_10" d="M19.48,459.58c1.48,0,34.26,22.15,49.92,25.11s30.72,5.02,30.72,5.02l48.14,5.02c0,0,20.38,3.25,32.49-1.48
	c12.11-4.73,24.81-9.45,36.92-11.81s18.61-14.77,20.97-19.2"></path>
    <path class="st0 TnVctsWo_11" d="M38.96,265.64c0,0-20.95-3.5-27.3-11.18"></path>
    <path class="st0 TnVctsWo_12" d="M43.57,229.06c0,0-29.36-5.32-35.32-13.96"></path>
    <style data-made-with="vivus-instant">.TnVctsWo_0{stroke-dasharray:5325 5327;stroke-dashoffset:5326;animation:TnVctsWo_draw 2000ms linear 0ms forwards;}.TnVctsWo_1{stroke-dasharray:230 232;stroke-dashoffset:231;animation:TnVctsWo_draw 2000ms linear 83ms forwards;}.TnVctsWo_2{stroke-dasharray:124 126;stroke-dashoffset:125;animation:TnVctsWo_draw 2000ms linear 166ms forwards;}.TnVctsWo_3{stroke-dasharray:215 217;stroke-dashoffset:216;animation:TnVctsWo_draw 2000ms linear 250ms forwards;}.TnVctsWo_4{stroke-dasharray:216 218;stroke-dashoffset:217;animation:TnVctsWo_draw 2000ms linear 333ms forwards;}.TnVctsWo_5{stroke-dasharray:230 232;stroke-dashoffset:231;animation:TnVctsWo_draw 2000ms linear 416ms forwards;}.TnVctsWo_6{stroke-dasharray:263 265;stroke-dashoffset:264;animation:TnVctsWo_draw 2000ms linear 500ms forwards;}.TnVctsWo_7{stroke-dasharray:253 255;stroke-dashoffset:254;animation:TnVctsWo_draw 2000ms linear 583ms forwards;}.TnVctsWo_8{stroke-dasharray:244 246;stroke-dashoffset:245;animation:TnVctsWo_draw 2000ms linear 666ms forwards;}.TnVctsWo_9{stroke-dasharray:249 251;stroke-dashoffset:250;animation:TnVctsWo_draw 2000ms linear 750ms forwards;}.TnVctsWo_10{stroke-dasharray:237 239;stroke-dashoffset:238;animation:TnVctsWo_draw 2000ms linear 833ms forwards;}.TnVctsWo_11{stroke-dasharray:30 32;stroke-dashoffset:31;animation:TnVctsWo_draw 2000ms linear 916ms forwards;}.TnVctsWo_12{stroke-dasharray:39 41;stroke-dashoffset:40;animation:TnVctsWo_draw 2000ms linear 1000ms forwards;}@keyframes TnVctsWo_draw{100%{stroke-dashoffset:0;}}@keyframes TnVctsWo_fade{0%{stroke-opacity:1;}94.44444444444444%{stroke-opacity:1;}100%{stroke-opacity:0;}}</style></svg>
