<svg id="Layer_1" data-name="Layer 1" xmlns="http://www.w3.org/2000/svg" viewBox="0 0 292.71 36.05"><defs><style>.cls-1{fill:#fff;}</style></defs><title>skanzen_logo</title><path class="cls-1" d="M290.58,25.67a2.46,2.46,0,0,0-2.3,1.26,1.93,1.93,0,0,0-2-1.26,2.42,2.42,0,0,0-2.2,1.24l.06-1.06h-1.23v7.22h1.28V29.23c0-1.73.8-2.44,1.77-2.44a1.19,1.19,0,0,1,1.24,1.34v4.94h1.29V29.15c0-1.69.77-2.36,1.77-2.36a1.18,1.18,0,0,1,1.24,1.34v4.94h1.29V28.12c0-1.64-.74-2.45-2.21-2.45m-11.2,4.2a2,2,0,0,1-2.06,2.27c-1,0-1.44-.51-1.44-1.53V25.85h-1.29v5a2.22,2.22,0,0,0,2.45,2.4,2.67,2.67,0,0,0,2.42-1.21v1h1.2V25.85h-1.28Zm-8.47-2.59a2.68,2.68,0,0,1,.66,1.57h-4.21a2.44,2.44,0,0,1,.68-1.58,2,2,0,0,1,1.44-.54,1.92,1.92,0,0,1,1.43.55m1.86,2c0-2.24-1.27-3.62-3.3-3.62a3.16,3.16,0,0,0-2.5,1,4,4,0,0,0-.91,2.74,4,4,0,0,0,.93,2.74,3.1,3.1,0,0,0,2.5,1.06,3.16,3.16,0,0,0,3.22-2.35l-1.17-.14a2,2,0,0,1-2,1.44c-1.33,0-2.15-.84-2.19-2.42h5.42Zm-10.91,4c1.89,0,3-.87,3-2.28,0-1.07-.64-1.71-2.11-2.05l-1.4-.31c-.83-.16-1.12-.47-1.12-1s.49-1,1.46-1,1.56.42,1.7,1.25h1.28c-.18-1.51-1.26-2.27-2.94-2.27s-2.69.8-2.69,2.09c0,1,.67,1.68,2,2l1.46.31c.75.15,1.13.5,1.13,1.05,0,.71-.59,1.13-1.72,1.13s-1.71-.43-1.83-1.43h-1.24c.17,1.64,1.18,2.47,3,2.47m-6-3.39a2,2,0,0,1-2.06,2.27c-1,0-1.45-.51-1.45-1.53V25.85H251.1v5a2.22,2.22,0,0,0,2.45,2.4A2.68,2.68,0,0,0,256,32.05v1h1.2V25.85h-1.28Zm-11.64.85-.33,1-.34-1-2.83-7.61h-1.83v10h1.19v-6.6l-.05-1.81.66,1.57,2.58,6.84h1.23l2.38-6.62.72-1.78,0,1.8v6.6h1.19v-10H247Zm-10.78-5.06a2.46,2.46,0,0,0-2.35,1.65V25.85h-1.2v7.22h1.28V29.13a2.27,2.27,0,0,1,.68-1.63,2,2,0,0,1,1.4-.59,2.77,2.77,0,0,1,.46,0V25.67h-.27m-5.79.19h-1.29v7.22h1.29Zm0-2.74h-1.29v1.38h1.29Zm-7.75,2.13.34-1,.32,1L222,29h-3.4Zm4.92,7.83-3.85-10h-1.47l-3.86,10h1.38l1.08-2.92h4.23l1,2.92Zm-17-7.4a2.7,2.7,0,0,0-2.42,1.2v-1h-1.2v7.22h1.29v-4a2,2,0,0,1,2.05-2.27c1,0,1.45.5,1.45,1.52v4.76h1.28v-5a2.22,2.22,0,0,0-2.45-2.39m-7.3,1.61a2.68,2.68,0,0,1,.66,1.57H197a2.44,2.44,0,0,1,.68-1.58,2,2,0,0,1,1.44-.54,1.92,1.92,0,0,1,1.43.55m1.86,2c0-2.24-1.27-3.62-3.31-3.62a3.15,3.15,0,0,0-2.49,1,4,4,0,0,0-.91,2.74,4,4,0,0,0,.93,2.74,3.1,3.1,0,0,0,2.5,1.06,3.17,3.17,0,0,0,3.22-2.35l-1.17-.14a2,2,0,0,1-2,1.44c-1.33,0-2.14-.84-2.18-2.42h5.42Zm-12.9,2.08a3.13,3.13,0,0,1-.58-2c0-1.67.84-2.58,2.08-2.58s2,.87,2,2.5a3.57,3.57,0,0,1-.54,2,1.7,1.7,0,0,1-1.47.78,1.82,1.82,0,0,1-1.5-.74m1.68-5.68A2.63,2.63,0,0,0,188.87,27V25.85h-1.12V35.93H189V32.19a2.52,2.52,0,0,0,2.14,1,2.75,2.75,0,0,0,2.31-1.11,4.48,4.48,0,0,0,.85-2.82,3.86,3.86,0,0,0-.85-2.62,2.84,2.84,0,0,0-2.26-1m-12.65,5.35a4.43,4.43,0,0,1-.94-3,4.28,4.28,0,0,1,.94-2.91,3.29,3.29,0,0,1,4.89,0,4.27,4.27,0,0,1,.93,2.91,4.41,4.41,0,0,1-.92,3,3.28,3.28,0,0,1-4.9,0M181,33.31a4.43,4.43,0,0,0,3.42-1.45,5.44,5.44,0,0,0,1.3-3.77,5.32,5.32,0,0,0-1.3-3.72A4.39,4.39,0,0,0,181,22.93a4.31,4.31,0,0,0-3.38,1.44,5.26,5.26,0,0,0-1.32,3.72,5.3,5.3,0,0,0,1.32,3.75A4.3,4.3,0,0,0,181,33.31m-12.94-7.64a2.7,2.7,0,0,0-2.43,1.2v-1h-1.2v7.22h1.29v-4a2,2,0,0,1,2.05-2.27c1,0,1.45.5,1.45,1.52v4.76h1.28v-5a2.22,2.22,0,0,0-2.44-2.39m-9.34,6.59c-.86,0-1.39-.43-1.39-1.16s.46-1.1,1.4-1.24l2.16-.33v1a1.51,1.51,0,0,1-.65,1.21,2.35,2.35,0,0,1-1.52.51m4.1-.14c-.46,0-.63-.16-.63-.63V27.94c0-1.54-.94-2.31-2.83-2.31s-2.88.78-3,2.35h1.27c.07-.95.58-1.29,1.64-1.29s1.63.38,1.63,1.12v.31c0,.32-.17.5-.52.55l-1.85.23c-1.64.21-2.46,1-2.46,2.26s.92,2.1,2.42,2.1A3.08,3.08,0,0,0,161.11,32c0,.72.47,1.06,1.24,1.06H163v-1Zm-8.61-6.27h-1.29v7.22h1.29Zm0-2.74h-1.29v1.38h1.29Zm-2.89,2.55A2.47,2.47,0,0,0,149,27.31V25.85h-1.2v7.22h1.29V29.13a2.22,2.22,0,0,1,.67-1.63,2,2,0,0,1,1.4-.59,2.77,2.77,0,0,1,.46,0V25.67h-.27m-9.26,6.6c-.86,0-1.39-.43-1.39-1.16s.46-1.1,1.4-1.24l2.16-.33v1a1.51,1.51,0,0,1-.65,1.21,2.35,2.35,0,0,1-1.52.51m4.1-.14c-.46,0-.63-.16-.63-.63V27.94c0-1.54-.94-2.31-2.83-2.31s-2.88.78-3,2.35H141c.07-.95.58-1.29,1.64-1.29s1.63.38,1.63,1.12v.31c0,.32-.17.5-.52.55l-1.85.23c-1.64.21-2.46,1-2.46,2.26s.92,2.1,2.42,2.1A3.08,3.08,0,0,0,144.45,32c.05.72.47,1.06,1.24,1.06h.69v-1Zm-13.46-.75a3.41,3.41,0,0,1-.53-2c0-1.64.74-2.55,2-2.55s2.07.91,2.07,2.58a3.08,3.08,0,0,1-.59,2,1.84,1.84,0,0,1-1.51.74,1.69,1.69,0,0,1-1.46-.75m3.65-4.4A2.61,2.61,0,0,0,134,25.7a2.84,2.84,0,0,0-2.26,1,4,4,0,0,0-.86,2.65,4.36,4.36,0,0,0,.85,2.79,2.75,2.75,0,0,0,2.3,1.09,2.67,2.67,0,0,0,2.26-1.2V33c0,1.52-.6,2.12-2.1,2.12-1.06,0-1.65-.31-1.83-1.09h-1.26c.18,1.41,1.31,2.11,3,2.11,2.14,0,3.39-1,3.39-3.26v-7h-1.2Zm-9.73-1.3a2.7,2.7,0,0,0-2.43,1.2v-1H123v7.22h1.29v-4a2,2,0,0,1,2.06-2.27c1,0,1.44.5,1.44,1.52v4.76h1.28v-5a2.22,2.22,0,0,0-2.44-2.39m-7.16,4.2a2,2,0,0,1-2.06,2.27q-1.44,0-1.44-1.53V25.85h-1.29v5a2.23,2.23,0,0,0,2.45,2.4,2.69,2.69,0,0,0,2.43-1.21v1h1.2V25.85h-1.29Zm-8.4-2.66h-5.28v-4.1h-1.3v10h1.3V28.34h5.28v4.73h1.3v-10h-1.3Z" transform="translate(-0.08 -0.05)"/><path class="cls-1" d="M289.53,6.67a2.46,2.46,0,0,0-2.3,1.26,1.93,1.93,0,0,0-2-1.26A2.42,2.42,0,0,0,283,7.91l.06-1.06h-1.23v7.22h1.28V10.23c0-1.73.8-2.44,1.77-2.44a1.19,1.19,0,0,1,1.24,1.34v4.94h1.29V10.15c0-1.69.77-2.36,1.77-2.36a1.18,1.18,0,0,1,1.24,1.34v4.94h1.29v-5c0-1.64-.74-2.45-2.21-2.45m-11.2,4.2a2,2,0,0,1-2.06,2.27c-1,0-1.44-.51-1.44-1.53V6.85h-1.29v5a2.22,2.22,0,0,0,2.45,2.4,2.67,2.67,0,0,0,2.42-1.21v1h1.21V6.85h-1.29Zm-8.47-2.59a2.68,2.68,0,0,1,.66,1.57h-4.2A2.48,2.48,0,0,1,267,8.26a2,2,0,0,1,1.44-.53,1.92,1.92,0,0,1,1.43.55m1.86,2c0-2.25-1.27-3.62-3.3-3.62a3.17,3.17,0,0,0-2.5,1,4,4,0,0,0-.91,2.74,4,4,0,0,0,.93,2.74,3.1,3.1,0,0,0,2.5,1.06,3.16,3.16,0,0,0,3.22-2.35l-1.17-.14a2,2,0,0,1-2,1.44c-1.33,0-2.15-.84-2.19-2.42h5.42Zm-8.06-2.67V6.85H258v1h4l-4.19,5.28v.9h6V13h-4.52Zm-8.91,3.24a2,2,0,0,1-2.06,2.27q-1.44,0-1.44-1.53V6.85H250v5a2.22,2.22,0,0,0,2.44,2.4,2.69,2.69,0,0,0,2.43-1.21v1H256V6.85h-1.29Zm-1.41-7.1-1.23,2.17h1.13l1.86-2.17Zm-10.22,8-.34,1-.33-1-2.83-7.61h-1.83v10H239V7.47l0-1.81.66,1.57,2.58,6.84h1.23l2.38-6.62.71-1.78,0,1.8v6.6h1.18v-10h-1.8ZM231.69,6.85h-1.28v7.22h1.28Zm0-2.74h-1.28V5.49h1.28Zm-3.34,3.52V6.85h-5.61v1h4l-4.19,5.28v.9h6V13h-4.53Zm-9.79,9.3c1.51,0,2.17-.66,2.17-2.17V6.85h-1.28v8.09c0,.69-.23.91-.91.91h-.33v1.08Zm2.17-12.82h-1.28V5.49h1.28Zm-7,9.15c-.85,0-1.38-.43-1.38-1.16s.46-1.1,1.4-1.24l2.15-.33v1a1.52,1.52,0,0,1-.64,1.21,2.37,2.37,0,0,1-1.53.51m4.1-.14c-.46,0-.63-.16-.63-.63V8.94c0-1.54-.93-2.31-2.82-2.31s-2.89.78-3,2.35h1.27c.07-1,.57-1.29,1.64-1.29s1.62.38,1.62,1.12v.31a.51.51,0,0,1-.51.55l-1.85.23c-1.64.21-2.47,1-2.47,2.26s.93,2.1,2.42,2.1A3.08,3.08,0,0,0,216.11,13c.06.72.48,1.06,1.25,1.06H218v-1Zm-7.89-6.46a2.45,2.45,0,0,0-2.35,1.65V6.85h-1.21v7.22h1.29V10.13a2.26,2.26,0,0,1,.67-1.63,2,2,0,0,1,1.4-.59,2.7,2.7,0,0,1,.46,0V6.67h-.26m-10.17,5.72a3.13,3.13,0,0,1-.58-2c0-1.67.84-2.58,2.08-2.58s2,.87,2,2.5a3.57,3.57,0,0,1-.54,2,1.7,1.7,0,0,1-1.47.78,1.82,1.82,0,0,1-1.5-.74m1.68-5.68A2.63,2.63,0,0,0,199.09,8V6.85H198V16.93h1.29V13.19a2.52,2.52,0,0,0,2.14,1,2.74,2.74,0,0,0,2.31-1.11,4.48,4.48,0,0,0,.85-2.82,3.86,3.86,0,0,0-.85-2.62,2.84,2.84,0,0,0-2.26-1m-7.16,1.58A2.68,2.68,0,0,1,195,9.85h-4.21a2.49,2.49,0,0,1,.68-1.59,2,2,0,0,1,1.44-.53,1.92,1.92,0,0,1,1.43.55m1.86,2c0-2.25-1.27-3.62-3.31-3.62a3.15,3.15,0,0,0-2.49,1,4,4,0,0,0-.91,2.74,4,4,0,0,0,.93,2.74,3.1,3.1,0,0,0,2.5,1.06,3.17,3.17,0,0,0,3.22-2.35l-1.17-.14a2,2,0,0,1-2,1.44c-1.33,0-2.14-.84-2.18-2.42h5.42Zm-3-6.53L192,5.94h1.13L195,3.77Zm-6.86,8.47-5.25-8.13h-1.44v10h1.23V6l5.21,8.09h1.48v-10h-1.23ZM173.54,6.85h-1.29v7.22h1.29Zm0-2.74h-1.29V5.49h1.29Zm-2.89,2.55a2.47,2.47,0,0,0-2.35,1.65V6.85h-1.2v7.22h1.29V10.13a2.22,2.22,0,0,1,.67-1.63,2,2,0,0,1,1.4-.59,2.77,2.77,0,0,1,.46,0V6.67h-.27m-7.23,1.62a2.68,2.68,0,0,1,.66,1.57h-4.21a2.49,2.49,0,0,1,.68-1.59A2,2,0,0,1,162,7.73a1.92,1.92,0,0,1,1.43.55m1.86,2c0-2.25-1.27-3.62-3.31-3.62a3.15,3.15,0,0,0-2.49,1,4,4,0,0,0-.91,2.74,4,4,0,0,0,.93,2.74,3.1,3.1,0,0,0,2.5,1.06,3.17,3.17,0,0,0,3.22-2.35l-1.17-.14a2,2,0,0,1-2,1.44c-1.34,0-2.15-.84-2.19-2.42h5.42Zm-3-6.53-1.23,2.17h1.13l1.87-2.17Zm-4.86,4.07v-1l-1.65.06V4.64h-1.29V6.89l-1.07,0v1l1.07,0v4.68c0,1.12.49,1.6,1.61,1.6h1.32V13h-.94c-.55,0-.7-.16-.7-.7V7.79ZM147,12.37a3.41,3.41,0,0,1-.53-2c0-1.64.74-2.55,2-2.55s2.07.91,2.07,2.58a3.13,3.13,0,0,1-.59,2,1.86,1.86,0,0,1-1.51.74,1.69,1.69,0,0,1-1.46-.75m3.49-4.65a2.54,2.54,0,0,0-2.19-1,2.82,2.82,0,0,0-2.25,1,4,4,0,0,0-.87,2.65,4.36,4.36,0,0,0,.85,2.79,2.77,2.77,0,0,0,2.3,1.09,2.65,2.65,0,0,0,2.33-1.3v1.14h1.11v-10h-1.28Zm-10.6,5.54c-.86,0-1.39-.43-1.39-1.16s.46-1.1,1.4-1.24l2.16-.33v1a1.52,1.52,0,0,1-.64,1.21,2.39,2.39,0,0,1-1.53.51m4.1-.14c-.46,0-.63-.16-.63-.63V8.94c0-1.54-.94-2.31-2.83-2.31s-2.88.78-3,2.35h1.28c.07-1,.57-1.29,1.64-1.29S142,8.07,142,8.81v.31c0,.32-.17.5-.52.55l-1.85.23c-1.64.21-2.46,1-2.46,2.26s.92,2.1,2.42,2.1A3.08,3.08,0,0,0,142.25,13a1.07,1.07,0,0,0,1.24,1.06h.69v-1Zm-13-.74a3.13,3.13,0,0,1-.59-2c0-1.67.84-2.58,2.09-2.58s2,.87,2,2.5a3.57,3.57,0,0,1-.53,2,1.7,1.7,0,0,1-1.47.78,1.81,1.81,0,0,1-1.5-.74m1.68-5.68a2.56,2.56,0,0,0-2.2,1V4.11h-1.28v10h1.12V12.94a2.58,2.58,0,0,0,2.31,1.29,2.76,2.76,0,0,0,2.31-1.11,4.48,4.48,0,0,0,.85-2.82,3.86,3.86,0,0,0-.85-2.62,2.85,2.85,0,0,0-2.26-1m-9.19,6.56c-.86,0-1.39-.43-1.39-1.16s.46-1.1,1.4-1.24l2.16-.33v1a1.51,1.51,0,0,1-.65,1.21,2.35,2.35,0,0,1-1.52.51m4.1-.14c-.47,0-.63-.16-.63-.63V8.94c0-1.54-.94-2.31-2.83-2.31s-2.88.78-3,2.35h1.27c.07-1,.58-1.29,1.64-1.29s1.63.38,1.63,1.12v.31c0,.32-.17.5-.52.55l-1.85.23c-1.64.21-2.46,1-2.46,2.26s.92,2.1,2.42,2.1A3.09,3.09,0,0,0,125.86,13c0,.72.47,1.06,1.24,1.06h.69v-1Zm-8.43-5.49V6.85h-5.61v1h4l-4.19,5.28v.9h6V13h-4.52Zm-11.06,6.65c2.59,0,3.85-1.23,3.85-3,0-1.49-1-2.42-2.86-2.83l-1.75-.38c-1.23-.26-1.73-.71-1.73-1.51,0-1,.82-1.65,2.27-1.65s2.4.67,2.52,1.94h1.24c-.15-1.92-1.5-3-3.72-3S104.37,5,104.37,6.71c0,1.5,1,2.23,2.8,2.61l1.4.29c1.52.32,2.11.83,2.11,1.78,0,1.16-.87,1.83-2.55,1.83s-2.74-.8-2.87-2.38H104c.16,2.3,1.52,3.44,4.07,3.44" transform="translate(-0.08 -0.05)"/><path class="cls-1" d="M28.74,14.72h3s-1.44-7-1.5-7.4c-.08.78-1.48,7.4-1.48,7.4m51.37,7.21h-3L72.33,9.5l.43,12.43H69.91V4.33h3s4.34,11.61,4.76,12.83c-.08-.65-.46-12.83-.46-12.83h2.88Zm-10.83,0H59.56V4.33H69v2.8H62.87v4.28h4.37v2.8H62.87v4.92h6.41Zm-10.35,0H48.21V19.34L55,7.13H48.53V4.33h10V7.21L52,19.13h6.92Zm-11.36,0h-3L39.79,9.82l.43,12.11H37.37V4.33h3l4.77,12.5-.47-12.5h2.89Zm-10.91,0H33.35l-1-4.41H28.11l-1,4.41H22.83L18,14.29v7.64h-3.3V4.33H18v7l5.21-7h3.59l-6.37,8,4.44,6.76L28.47,4.3h3.8ZM7.07,8.17A2.68,2.68,0,0,0,8.52,10.4l2.63,1.81q3,2.05,3,4.93A5,5,0,0,1,12.61,21a5.68,5.68,0,0,1-4,1.4A6.7,6.7,0,0,1,3.21,20l2-2.26a4.22,4.22,0,0,0,3.34,2,2.29,2.29,0,0,0,1.63-.6,2.07,2.07,0,0,0,.65-1.59,3.26,3.26,0,0,0-1.59-2.67l-2.85-2A5.26,5.26,0,0,1,3.76,8.56a4.39,4.39,0,0,1,1.48-3.5A5.36,5.36,0,0,1,8.89,3.83a6,6,0,0,1,4.82,2.38L11.55,8A3.91,3.91,0,0,0,8.94,6.49,1.88,1.88,0,0,0,7.6,7a1.61,1.61,0,0,0-.53,1.2M84.65.05H.08V33.47H84.65Z" transform="translate(-0.08 -0.05)"/></svg>