<!--?xml version="1.0" encoding="utf-8"?-->
<!-- Generator: Adobe Illustrator 23.0.1, SVG Export Plug-In . SVG Version: 6.00 Build 0)  -->
<svg version="1.1" id="Layer_1" xmlns="http://www.w3.org/2000/svg" xmlns:xlink="http://www.w3.org/1999/xlink" x="0px" y="0px" viewBox="0 0 545 263" style="" xml:space="preserve">
<style type="text/css">
	.st0{fill:none;stroke:#FDC1BA;stroke-miterlimit:10;}
</style>
    <g>
	<path class="st0 ggwdVMSs_0" d="M353.24,182.41c0,0,15.09,6.17,30.93,15.06s39.59,29.13,46.27,33.82s25.49,17.53,37.86,19.75
		c12.37,2.22,24.99,7.16,40.83,1.73s17.57-10.12,21.53-14.81"></path>
        <path class="st0 ggwdVMSs_1" d="M385.41,120.08c0,0-33.65,70.72-36.75,66.52"></path>
        <path class="st0 ggwdVMSs_2" d="M355.84,160.07c0,0,28.5-56.65,35.59-65.91"></path>
        <path class="st0 ggwdVMSs_3" d="M281.65,149.66L351.43,179.12"></path>
        <path class="st0 ggwdVMSs_4" d="M317.74,64.73c0,0,2.66-4.2,3.09-5.06"></path>
        <path class="st0 ggwdVMSs_5" d="M279.67,114.61c0,0-2.42,4.3-3.13,5.72"></path>
        <path class="st0 ggwdVMSs_6" d="M280.37,156.49c0,0,66.69,29.74,68.29,30.11c2.72-4.07,2.1-3.7,4.45-12.96c2.35-9.26,2.72-13.58,2.72-13.58
		s-54.19-19.5-63.1-25.3s-14.35-8.39-16.21-14.44c-1.49-2.47-50.11-20.86-50.11-20.86"></path>
        <path class="st0 ggwdVMSs_7" d="M280.82,142.09c0,0,1.16,7.86,0.04,12.3c-1.11,4.44-2.47,11.56-4.83,13.86c0,0,3.34,1.69,4.95,1.69
		c1.61,0,17.32,0,23.01,0.12s14.1,3.21,14.1,3.21"></path>
        <path class="st0 ggwdVMSs_8" d="M191.41,51.71c0,0,13.36,2.35,18.19,5.18"></path>
        <path class="st0 ggwdVMSs_9" d="M178.18,46.9c0,0,13.11,2.47,13.24,3.21c0.12,0.74-4.83,51.84-5.2,54.3"></path>
        <path class="st0 ggwdVMSs_10" d="M164.94,42.58c0,0,12.99,2.72,13.24,3.46s-6.31,52.95-6.31,52.95"></path>
        <path class="st0 ggwdVMSs_11" d="M152.57,38.38c0,0,12.37,2.22,12.5,3.09c0.12,0.86-7.55,51.96-7.55,51.96"></path>
        <path class="st0 ggwdVMSs_12" d="M138.34,33.2c0,0,13.86,3.46,14.35,3.95c0.5,0.49-8.66,50.85-8.66,50.85"></path>
        <path class="st0 ggwdVMSs_13" d="M277.36,86.97c0,0,10.06,1.65,15.51,3.79c5.44,2.14,75.22,28.14,75.22,28.14"></path>
        <path class="st0 ggwdVMSs_14" d="M275.22,48.3L277.36,86.97L262.51,106.71"></path>
        <path class="st0 ggwdVMSs_15" d="M275.22,48.3l-38.77,46.9c0,0,41.74,17.77,43.22,19.42c1.48,1.65,4.29,8.56,16.17,13.99
		c11.88,5.43,54.93,22.54,54.93,22.54l30.68-56.44c0,0-50.31-15.3-53.61-17.77c-3.3-2.47-9.07-11.19-10.56-12.34
		c-1.48-1.15-8.74-4.11-11.05-4.77C303.92,59.16,275.22,48.3,275.22,48.3z"></path>
        <path class="st0 ggwdVMSs_16" d="M104.44,8.88c0,0,146.69,47.06,153.37,49.78"></path>
        <path class="st0 ggwdVMSs_17" d="M273.9,154.44c0,0-210-84.25-232.27-95.61"></path>
        <path class="st0 ggwdVMSs_18" d="M50.54,50.93c0,0-9.57,6.91-8.91,7.9s7.09,13.99,8.58,14.98c1.49,0.99,225.83,94.46,225.83,94.46
		s-2.64-13-2.14-13.82c0.49-0.82,8.08-12.01,6.93-12.34S56.64,53.23,50.54,50.93z"></path>
        <path class="st0 ggwdVMSs_19" d="M265.4,49.92c0,0-29.69,35.24-32.91,38.2c-3.22,2.96-2.17,3.93-3.97,6.62s-2.99,4.48-1.95,7.47
		c1.05,2.99,5.99,21.35,5.99,21.35"></path>
        <path class="st0 ggwdVMSs_20" d="M105.92,12.96c0,0,4.33,9.26,5.82,10c0.41,0.21,11.3,3.86,26.8,9.02c0,0-8.49,47.88-9.11,50.1"></path>
        <path class="st0 ggwdVMSs_21" d="M249.81,68.87c0,0-17.4-5.75-39.84-13.19c0,0-1.36,52.31-2.59,57.13"></path>
        <path class="st0 ggwdVMSs_22" d="M105.92,12.96c0,0-24.87-8.52-28.21-9.63s-7.18-2.96-10.52-0.37C63.86,5.55,9.79,46.28,6.33,49.61
		s-6.06,4.57-2.72,8.27s3.59,4.94,7.67,6.67s28.46,11.48,40.95,17.03c12.5,5.55,54.93,22.46,67.31,28.02
		c12.37,5.55,50.11,22.59,62.36,27.52c12.25,4.94,47.39,19.62,57.65,23.94c10.27,4.32,31.8,14.07,35.63,15.43
		c3.84,1.36,4.33,2.1,6.56,1.73c2.23-0.37,29.69-0.12,44.79,4.32c15.09,4.44,44.91,13.58,65.7,29.74
		c20.79,16.17,25.36,21.23,32.17,26.91c6.8,5.68,9.77,7.04,17.94,10.61c8.17,3.58,18.06,8.39,22.15,9.63
		c4.08,1.23,16.46,2.22,26.85,1.85s27.22-6.42,35.14-17.03c7.92-10.61,12.37-22.34,14.23-34.06s1.61-24.07-3.84-34.19
		c-5.44-10.12-12.5-17.03-17.94-21.97s-10.14-7.72-21.28-11.55c0,0-14.85-6.35-24.99-7.71c-10.15-1.36-13.93-0.81-27.29-1.67
		c0,0-29.13-0.79-59.94-13.01c1.24-4.57,1.28-4.69,1.98-6.21s1.9-3.58,1.77-4.65c-0.12-1.07-0.7-1.32-0.7-1.32
		s2.97-12.51,2.97-13.74c0-1.23,0.29-0.99-1.53-1.89c-1.81-0.91-2.19-1.81-3.55-1.89s-1.61,0-2.35-0.66c-0.74-0.66-1.98-1.28-4-1.69
		s-34.56-11.15-40.5-13.62s-10.89-3.7-14.97-9.26c-4.08-5.55-2.85-5.31-6.93-7.03c-4.08-1.73-11.14-5.25-19.55-8.09
		c0,0-15.34-5.18-20.17-6.47c-4.83-1.3-6-0.68-6.37-0.12s-1.86,2.53-2.1,2.84c-0.25,0.31-0.43,0.74-1.05,0.74s-1.17,0.92-1.79,1.67
		c-0.62,0.74-1.17,1.23-1.17,1.23s-89.33-27.95-96.5-30.18c-7.18-2.22-10.89-2.72-13.61-3.58c-2.72-0.86-4.33-1.11-5.69-2.1
		s-0.81-0.81-9.47-3.03c0,0-17.25-5.11-21.34-6.23c-4.08-1.11-6.06-2.96-8.78-0.86s-5.44,4.32-5.57,4.94
		C104.31,9.5,105.92,12.96,105.92,12.96z"></path>
</g>
    <style data-made-with="vivus-instant">.ggwdVMSs_0{stroke-dasharray:203 205;stroke-dashoffset:204;animation:ggwdVMSs_draw 2700ms linear 0ms forwards;}.ggwdVMSs_1{stroke-dasharray:77 79;stroke-dashoffset:78;animation:ggwdVMSs_draw 2700ms linear 13ms forwards;}.ggwdVMSs_2{stroke-dasharray:75 77;stroke-dashoffset:76;animation:ggwdVMSs_draw 2700ms linear 27ms forwards;}.ggwdVMSs_3{stroke-dasharray:76 78;stroke-dashoffset:77;animation:ggwdVMSs_draw 2700ms linear 40ms forwards;}.ggwdVMSs_4{stroke-dasharray:6 8;stroke-dashoffset:7;animation:ggwdVMSs_draw 2700ms linear 54ms forwards;}.ggwdVMSs_5{stroke-dasharray:7 9;stroke-dashoffset:8;animation:ggwdVMSs_draw 2700ms linear 68ms forwards;}.ggwdVMSs_6{stroke-dasharray:247 249;stroke-dashoffset:248;animation:ggwdVMSs_draw 2700ms linear 81ms forwards;}.ggwdVMSs_7{stroke-dasharray:70 72;stroke-dashoffset:71;animation:ggwdVMSs_draw 2700ms linear 95ms forwards;}.ggwdVMSs_8{stroke-dasharray:19 21;stroke-dashoffset:20;animation:ggwdVMSs_draw 2700ms linear 109ms forwards;}.ggwdVMSs_9{stroke-dasharray:69 71;stroke-dashoffset:70;animation:ggwdVMSs_draw 2700ms linear 122ms forwards;}.ggwdVMSs_10{stroke-dasharray:68 70;stroke-dashoffset:69;animation:ggwdVMSs_draw 2700ms linear 136ms forwards;}.ggwdVMSs_11{stroke-dasharray:66 68;stroke-dashoffset:67;animation:ggwdVMSs_draw 2700ms linear 150ms forwards;}.ggwdVMSs_12{stroke-dasharray:67 69;stroke-dashoffset:68;animation:ggwdVMSs_draw 2700ms linear 163ms forwards;}.ggwdVMSs_13{stroke-dasharray:97 99;stroke-dashoffset:98;animation:ggwdVMSs_draw 2700ms linear 177ms forwards;}.ggwdVMSs_14{stroke-dasharray:64 66;stroke-dashoffset:65;animation:ggwdVMSs_draw 2700ms linear 190ms forwards;}.ggwdVMSs_15{stroke-dasharray:372 374;stroke-dashoffset:373;animation:ggwdVMSs_draw 2700ms linear 204ms forwards;}.ggwdVMSs_16{stroke-dasharray:162 164;stroke-dashoffset:163;animation:ggwdVMSs_draw 2700ms linear 218ms forwards;}.ggwdVMSs_17{stroke-dasharray:252 254;stroke-dashoffset:253;animation:ggwdVMSs_draw 2700ms linear 231ms forwards;}.ggwdVMSs_18{stroke-dasharray:551 553;stroke-dashoffset:552;animation:ggwdVMSs_draw 2700ms linear 245ms forwards;}.ggwdVMSs_19{stroke-dasharray:89 91;stroke-dashoffset:90;animation:ggwdVMSs_draw 2700ms linear 259ms forwards;}.ggwdVMSs_20{stroke-dasharray:91 93;stroke-dashoffset:92;animation:ggwdVMSs_draw 2700ms linear 272ms forwards;}.ggwdVMSs_21{stroke-dasharray:100 102;stroke-dashoffset:101;animation:ggwdVMSs_draw 2700ms linear 286ms forwards;}.ggwdVMSs_22{stroke-dasharray:1289 1291;stroke-dashoffset:1290;animation:ggwdVMSs_draw 2700ms linear 300ms forwards;}@keyframes ggwdVMSs_draw{100%{stroke-dashoffset:0;}}@keyframes ggwdVMSs_fade{0%{stroke-opacity:1;}94.44444444444444%{stroke-opacity:1;}100%{stroke-opacity:0;}}</style></svg>
