<!--?xml version="1.0" encoding="utf-8"?-->
<!-- Generator: Adobe Illustrator 23.0.1, SVG Export Plug-In . SVG Version: 6.00 Build 0)  -->
<svg version="1.1" id="Layer_1" xmlns="http://www.w3.org/2000/svg" xmlns:xlink="http://www.w3.org/1999/xlink" x="0px" y="0px" viewBox="0 0 424 347" style="" xml:space="preserve">
<style type="text/css">
	.st0{fill:none;stroke:#FDC1BA;stroke-miterlimit:10;}
</style>
    <path class="st0 DXnXMSIh_0" d="M202.8,340.55c0,0-0.29-10.51-0.39-23.97c-0.1-13.46,0.2-39.59-0.39-55.12c-0.59-15.52,0.39-39.59,0.1-51.38
	c-0.29-11.79-0.49-28.79-0.2-44.7c0.29-15.92,0.49-47.16,0.49-58.55c0-11.4,0.1-31.73,0.39-42.25c0.29-10.51,0.39-38.71,0.1-45.78
	c-0.29-7.07-0.69-11.74-0.69-11.74 M202.8,340.55c0,0,22.5,2.21,47.2,2.36c24.7,0.15,54.55,0.88,67.2,0.59
	c12.65-0.29,27.5,0.08,37.5,0.23c0,0,14.85,0.21,23.53,0.21c8.68,0,14.26,0.15,15.15-0.44c0.88-0.59,2.35-0.44,2.06-10.02
	c-0.29-9.58-0.88-59.24-1.18-78.84c-0.29-19.6-1.18-58.06-1.62-74.13c-0.44-16.06-1.18-81.2-1.47-95.2
	c-0.29-14-0.44-68.08-0.44-71.47s-0.15-6.93-1.47-7.22c-1.32-0.29-10.88-1.33-18.23-1.33c-7.35,0-112.93,0.74-123.96,0.88
	c-11.03,0.15-44.85,0.88-44.85,0.88S90.02,5.14,78.84,5.14c-11.18,0-60.29-2.06-61.61-1.33c-1.32,0.74-1.77,5.16-1.47,12.23
	c0.29,7.07-1.03,95.2-1.18,106.84c-0.15,11.64-1.47,86.21-2.35,118.04c-0.88,31.83-1.76,73.98-1.47,84
	c0.29,10.02-0.59,13.26-0.49,14.15c0.1,0.88-0.59,1.38,4.31,1.38s61.76,0.79,75.09,0.79s45.58,0.1,57.05,0
	C158.2,341.14,194.47,341.73,202.8,340.55z M376.9,5.44c0,0,18.23-1.18,22.65-0.59c0,0,8.23-0.39,8.23,1.67
	c0,2.06,0.2,6.48,0.29,19.35c0.1,12.87,0.98,41.17,1.08,51.58c0.1,10.41,1.18,47.55,1.86,57.47c0.69,9.92,0.98,29.67,1.27,44.01
	c0.29,14.34,1.67,44.7,1.77,53.94s1.76,39.99,1.86,53.64c0.1,13.66,0.78,27.41,0.98,37.73c0.2,10.32,0.39,16.01,0.39,16.01
	 M407.19,8.38c0,0,12.06,0.29,12.94,3.83c0.88,3.54,1.77,34.78,1.18,58.06c-0.59,23.28,0,88.13,0.29,101.68
	c0.29,13.56-1.18,78.99-0.59,91.07c0.59,12.08,0,57.77,0,63.96c0,6.19,0.29,12.23-1.18,12.67c-1.47,0.44-3.38,0.88-3.38,0.88
	l-21.03,0.15 M206.33,6.61c0,0,0.59-3.09,0.44-4.27c-0.15-1.18-4.12-1.33-5.74-1.18c-1.62,0.15-4.26,0.44-6.76,0.15
	c-2.5-0.3-7.35,0-19.56,0.44c-12.2,0.44-51.76,0.88-72.35,1.18S32.61,2.28,32.61,2.28c-3.63,0-8.61,0.61-9.79,1.19
	c-1.18,0.59-8.63,0-11.27,0.2C8.9,3.86,3.9,3.57,3.9,3.57S2.53,6.12,3.51,17.32c0.98,11.2,0.98,36.35,0,37.92
	c-0.98,1.57-2.89,3.68-1.72,6.04c1.18,2.36,1.18,5.01,1.18,9.43s-0.29,28.74,0.44,34.19c0.73,5.45,0.59,16.06,0.44,20.78
	C3.7,130.4,4,142.49,4.44,146.91c0.44,4.42,0.44,22.55,0.44,24.02c0,1.47,0.36,15.33,0.06,18.42c-0.29,3.09,0,18.13-0.29,24.61
	c-0.29,6.48-0.51,26.82-0.51,35.66c0,0-0.73,25.35-0.73,34.63s0.21,26.38,0.36,32.57c0,0,0.96,9.28,0.52,12.08
	c-0.44,2.8-0.44,10.76,0.59,12.97c1.03,2.21,3.09,3.09,9.26,3.09s53.23,0.15,62.94,0.29c9.7,0.15,39.26,0.29,44.41-0.15
	c5.15-0.44,22.2-0.29,25.44,0c3.24,0.29,6.32-0.74,8.97-0.44c2.65,0.29,11.47-0.15,16.03-0.15c4.56,0,30,0.15,32.64-0.15
	c2.65-0.29,3.68-1.18,4.41-2.51"></path>
    <g>
	<path class="st0 DXnXMSIh_1" d="M309.4,102.32c-0.22,0.06-0.38,0.14-0.55,0.16c-0.76,0.05-1.52-0.04-2.27-0.16c-0.09-0.02-0.19-0.01-0.28,0
		c-0.69,0.01-1.38-0.07-2.07,0.04c-0.43,0.06-0.89-0.05-1.34-0.11c-0.08-0.01-0.21-0.2-0.19-0.24c0.06-0.12,0.19-0.29,0.29-0.3
		c0.38-0.02,0.77,0.03,1.15,0.04c0.09,0,0.19-0.01,0.27-0.05c0.26-0.11,0.47-0.27,0.49-0.59c0.02-0.27,0.08-0.53,0.1-0.8
		c0.05-0.49,0.09-0.99,0.11-1.48c0.02-0.57-0.01-1.14,0.01-1.71c0.02-0.49,0.07-0.99,0.1-1.48c0.02-0.28,0.01-0.57,0.01-0.86
		c0.02-2.43,0.04-4.86,0.06-7.29c0-0.27-0.07-0.51-0.3-0.66c-0.15-0.1-0.33-0.17-0.51-0.19c-0.41-0.04-0.83-0.03-1.24-0.08
		c-0.09-0.01-0.24-0.19-0.22-0.24c0.04-0.12,0.17-0.3,0.26-0.3c0.67-0.01,1.34,0.03,2.01,0.04c0.47,0.01,0.95,0.01,1.43,0
		c0.46-0.01,0.92-0.05,1.38-0.05c0.53,0,1.05,0.03,1.58,0.06c0.09,0.01,0.23,0.1,0.25,0.17c0.03,0.1-0.01,0.25-0.08,0.33
		c-0.07,0.08-0.21,0.11-0.33,0.12c-0.44,0.03-0.89,0.04-1.33,0.06c-0.25,0.01-0.48,0.25-0.52,0.55c-0.05,0.42-0.09,0.84-0.12,1.26
		c-0.03,0.47-0.05,0.94-0.06,1.41c-0.01,0.41,0,0.82,0,1.23c0,0.77,0.01,1.54,0,2.31c0,0.17-0.06,0.34-0.08,0.52
		c-0.01,0.07,0.01,0.15,0.02,0.22c0.03,0.01,0.06,0.02,0.09,0.04c0.24-0.3,0.49-0.6,0.7-0.92c0.54-0.78,1.06-1.57,1.58-2.36
		c0.33-0.5,0.65-1.01,0.99-1.51c0.23-0.34,0.51-0.66,0.73-1.01c0.15-0.24,0.25-0.51,0.35-0.78c0.08-0.23,0-0.45-0.17-0.6
		c-0.32-0.29-0.7-0.44-1.14-0.37c-0.21,0.03-0.47-0.07-0.43-0.22s0.2-0.35,0.33-0.37c0.37-0.05,0.76-0.02,1.14-0.02
		c0.53,0,1.06-0.01,1.6,0c0.49,0.01,0.98,0.04,1.47,0.05c0.21,0.01,0.43-0.03,0.62,0.01c0.11,0.03,0.25,0.18,0.26,0.3
		c0.02,0.17-0.15,0.18-0.3,0.21c-0.42,0.09-0.85,0.16-1.23,0.33c-0.33,0.15-0.63,0.4-0.89,0.66c-0.34,0.35-0.63,0.74-0.91,1.13
		c-0.76,1.05-1.5,2.1-2.25,3.16c-0.05,0.08-0.08,0.21-0.05,0.29c0.18,0.45,0.39,0.88,0.57,1.33c0.3,0.77,0.58,1.55,0.88,2.32
		c0.18,0.45,0.39,0.89,0.58,1.34c0.33,0.78,0.66,1.57,1,2.35c0.12,0.27,0.27,0.53,0.4,0.8c0.09,0.2,0.13,0.43,0.24,0.61
		c0.13,0.22,0.31,0.42,0.5,0.58c0.2,0.16,0.44,0.27,0.67,0.39c0.04,0.02,0.12,0,0.17-0.01c0.15-0.04,0.3-0.07,0.45-0.12
		c0.17-0.05,0.32-0.04,0.35,0.18c0.04,0.25-0.09,0.45-0.3,0.45c-0.43,0-0.86-0.05-1.3-0.05c-0.56,0-1.13,0.03-1.69,0.04
		c-0.07,0-0.13,0-0.2,0c-0.75,0-1.5,0-2.25,0C309.76,102.48,309.5,102.52,309.4,102.32z M308.35,94.31
		c-0.03-0.01-0.07-0.03-0.1-0.04c-0.2,0.24-0.41,0.47-0.59,0.72c-0.07,0.1-0.12,0.24-0.13,0.36c-0.03,0.36-0.05,0.73-0.06,1.1
		c-0.02,1.2-0.05,2.4-0.06,3.6c0,0.37,0.04,0.73,0.05,1.1c0.01,0.38,0.22,0.6,0.6,0.6c0.18,0,0.36,0,0.54,0
		c0.28,0.01,0.58-0.01,0.75,0.27c0.11-0.08,0.2-0.18,0.31-0.2c0.37-0.08,0.75-0.13,1.12-0.17c0.19-0.02,0.24-0.11,0.19-0.26
		c-0.2-0.62-0.4-1.24-0.62-1.86c-0.15-0.43-0.34-0.85-0.5-1.28c-0.11-0.3-0.2-0.61-0.31-0.91s-0.24-0.59-0.36-0.89
		c-0.03-0.08-0.05-0.16-0.08-0.23c-0.16-0.38-0.33-0.75-0.48-1.14C308.51,94.82,308.43,94.56,308.35,94.31z"></path>
        <path class="st0 DXnXMSIh_2" d="M259.79,93.79c0.55-0.82,1.11-1.64,1.66-2.47c0.34-0.51,0.69-1.02,1.02-1.53c0.32-0.49,0.61-0.99,0.92-1.49
		c0.02-0.03,0.03-0.07,0.05-0.1c0.25-0.33,0.51-0.66,0.76-0.99c0.2-0.27,0.05-1.02-0.47-1.15c-0.3-0.08-0.62-0.09-0.94-0.12
		c-0.17-0.01-0.33,0-0.36-0.22c-0.02-0.17,0.19-0.42,0.35-0.41c0.46,0.02,0.91,0.07,1.37,0.1c0.24,0.02,0.47,0.01,0.71,0.02
		c0.39,0.02,0.79,0.05,1.18,0.05c0.27,0,0.54-0.06,0.81-0.07c0.21-0.01,0.42,0,0.63,0.03c0.06,0.01,0.15,0.12,0.14,0.18
		c-0.01,0.07-0.09,0.17-0.16,0.19c-0.16,0.05-0.33,0.06-0.49,0.1c-0.66,0.16-1.17,0.56-1.58,1.07c-0.78,0.98-1.53,1.97-2.29,2.97
		c-0.28,0.37-0.53,0.76-0.8,1.14c-0.17,0.23-0.19,0.46-0.07,0.73c0.35,0.8,0.73,1.6,1,2.43c0.33,0.99,0.76,1.94,1.18,2.89
		c0.44,1.01,0.86,2.03,1.31,3.03c0.29,0.64,0.63,1.07,1.54,1.06c0.07,0,0.15-0.01,0.19,0.02c0.09,0.06,0.17,0.15,0.25,0.23
		c-0.11,0.09-0.21,0.24-0.32,0.25c-0.56,0.01-1.13-0.02-1.69-0.04c-0.49-0.02-0.98-0.01-1.47-0.04c-0.75-0.05-1.51,0.02-2.26,0.04
		c-0.03,0-0.07,0.01-0.08,0c-0.09-0.08-0.23-0.16-0.23-0.25s0.13-0.24,0.21-0.25c0.36-0.06,0.72-0.09,1.08-0.12
		c0.38-0.03,0.49-0.16,0.36-0.51c-0.28-0.79-0.59-1.57-0.89-2.35c-0.23-0.6-0.46-1.21-0.68-1.81c-0.31-0.83-0.61-1.66-0.93-2.48
		c-0.05-0.13-0.18-0.3-0.3-0.32c-0.09-0.02-0.24,0.14-0.33,0.25c-0.37,0.41-0.5,0.88-0.49,1.44c0.01,0.65-0.07,1.3-0.1,1.95
		c-0.02,0.39,0,0.78-0.01,1.17c-0.01,0.32-0.05,0.64-0.05,0.96c0,0.43,0.02,0.86,0.06,1.3c0.02,0.26,0.36,0.48,0.67,0.47
		c0.29,0,0.59,0,0.88,0c0.17,0,0.3,0.04,0.31,0.24c0.01,0.23-0.15,0.27-0.31,0.27c-0.45-0.01-0.9-0.03-1.35-0.06
		c-0.4-0.03-0.8-0.05-1.2-0.12c-0.67-0.12-1.32,0.1-1.97,0.11c-0.42,0.01-0.85-0.02-1.26-0.07c-0.11-0.01-0.21-0.17-0.31-0.25
		c0.15-0.08,0.29-0.21,0.45-0.22c0.42-0.03,0.83,0,1.25-0.02c0.28-0.01,0.54-0.31,0.57-0.63c0.04-0.5,0.09-1.01,0.11-1.51
		c0.03-0.94,0.03-1.87,0.06-2.81c0.02-0.69,0.07-1.39,0.11-2.08c0-0.04,0.01-0.08,0-0.11c-0.23-0.41,0.01-0.79,0.04-1.19
		c0.02-0.22-0.03-0.45-0.04-0.67c-0.01-0.4,0.01-0.8,0-1.19c-0.01-0.36-0.06-0.71-0.05-1.07c0.01-0.4,0.07-0.8,0.09-1.2
		c0.02-0.46,0.01-0.92,0-1.39c-0.01-0.3-0.03-0.6-0.1-0.89c-0.07-0.3-0.35-0.49-0.66-0.49c-0.39,0-0.78,0.01-1.17-0.01
		c-0.13-0.01-0.3-0.08-0.37-0.18c-0.16-0.21-0.02-0.44,0.24-0.43c0.9,0.03,1.8,0.08,2.71,0.11c0.27,0.01,0.55,0,0.82,0
		c0.56,0,1.12,0,1.68,0c0.39,0,0.78,0,1.17,0c0.21,0,0.32,0.08,0.31,0.3c0,0.21-0.12,0.26-0.31,0.28c-0.49,0.03-0.99,0.07-1.48,0.11
		c-0.31,0.03-0.47,0.24-0.49,0.55c-0.05,1.02-0.09,2.05-0.18,3.07c-0.07,0.87-0.04,1.74-0.05,2.61c0,0.15-0.05,0.29-0.05,0.44
		c-0.01,0.38,0,0.76,0,1.14C259.74,93.76,259.77,93.77,259.79,93.79z"></path>
        <path class="st0 DXnXMSIh_3" d="M217.47,85.08c-0.21,0-0.42,0.03-0.62-0.01c-0.19-0.04-0.43-0.07-0.39-0.37c0.03-0.27,0.25-0.31,0.43-0.29
		c0.56,0.04,1.11,0.12,1.66,0.18c0.03,0,0.05,0.03,0.08,0.03c1.71-0.13,3.42-0.01,5.13-0.04c0.48-0.01,0.96,0.04,1.44,0.05
		c0.26,0,0.52-0.04,0.78-0.05c0.36-0.01,0.48,0.11,0.47,0.46c-0.01,0.43-0.05,0.87-0.05,1.3c0,0.28,0.04,0.56,0.05,0.84
		c0.02,0.43,0.04,0.86,0.07,1.29c0.01,0.13,0.03,0.26,0.04,0.38c0.02,0.55,0.05,1.1,0.05,1.64c0,0.2-0.12,0.35-0.37,0.33
		c-0.24-0.02-0.24-0.18-0.25-0.36c-0.04-0.58-0.06-1.17-0.27-1.73c-0.25-0.66-0.46-1.34-0.7-2.01c-0.09-0.25-0.24-0.48-0.35-0.72
		c-0.21-0.46-0.61-0.68-1.07-0.74c-0.68-0.08-1.37-0.09-2.05-0.12c-0.57-0.03-0.64,0.25-0.61,0.72c0.02,0.29,0,0.59,0,0.89
		c0,0.03,0,0.06,0,0.09c-0.02,0.75-0.04,1.51-0.06,2.26c-0.01,0.39-0.05,0.79-0.05,1.18c0,0.55,0.03,1.09,0.06,1.64
		c0,0.07,0.1,0.19,0.16,0.2c0.82,0.14,1.55-0.31,1.89-1.09c0.3-0.7,0.38-1.43,0.38-2.18c0-0.1-0.02-0.21-0.06-0.3
		c-0.1-0.22-0.01-0.3,0.2-0.35c0.33-0.09,0.66,0.21,0.6,0.54c-0.05,0.28-0.1,0.57-0.1,0.86c-0.03,1.64-0.06,3.29-0.05,4.93
		c0,0.59,0.09,1.17,0.16,1.76c0.04,0.31-0.18,0.49-0.57,0.45c-0.32-0.03-0.36-0.11-0.28-0.41c0.03-0.13,0.02-0.27,0.02-0.4
		c0-0.32,0.02-0.65-0.03-0.97c-0.1-0.61-0.27-1.19-0.68-1.7c-0.37-0.46-0.83-0.51-1.33-0.55c-0.32-0.03-0.4,0.1-0.38,0.43
		c0.01,0.19-0.05,0.39-0.05,0.58c0.01,0.39,0.05,0.77,0.04,1.16c0,0.18-0.1,0.36-0.1,0.54c-0.01,0.66-0.01,1.33-0.01,1.99
		c0,0.43-0.01,0.86,0,1.29c0.01,0.4,0.03,0.81,0.06,1.21c0.02,0.29,0.33,0.49,0.62,0.44c0.17-0.03,0.35,0.02,0.52,0.02
		c0.55-0.01,1.1,0.02,1.63-0.08c0.31-0.06,0.61-0.31,0.86-0.53c0.67-0.58,1.08-1.33,1.31-2.19c0.02-0.08,0.05-0.16,0.1-0.23
		c0.28-0.38,0.25-0.82,0.3-1.26c0.04-0.35,0.06-0.71,0.12-1.05c0.04-0.23,0.22-0.3,0.44-0.29s0.34,0.15,0.34,0.34
		c-0.01,0.35-0.08,0.7-0.11,1.05c-0.01,0.08,0.01,0.16,0.01,0.23c-0.02,0.49-0.04,0.98-0.05,1.47c-0.01,0.16,0,0.32,0,0.49
		c-0.02,0.34-0.05,0.67-0.05,1.01c-0.01,0.39,0.06,0.79-0.28,1.1c-0.07,0.07-0.1,0.22-0.09,0.33c0.02,0.31-0.08,0.42-0.38,0.41
		c-0.36-0.01-0.72,0.02-1.08,0.03c-0.17,0-0.33-0.02-0.5-0.03c-0.53-0.02-1.06-0.03-1.58-0.06c-0.65-0.04-1.3-0.11-1.95-0.16
		c-0.07-0.01-0.13,0-0.2,0c-0.67-0.02-1.34-0.04-2.01-0.06c-0.39-0.01-0.78,0.01-1.17,0s-0.79-0.03-1.18-0.06
		c-0.18-0.01-0.35-0.05-0.32-0.29c0.02-0.17,0.24-0.31,0.43-0.27c0.44,0.09,0.87,0.08,1.29-0.06c0.36-0.12,0.54-0.44,0.5-0.81
		c-0.02-0.18,0.04-0.37,0.05-0.56c0.02-0.42,0.03-0.85,0.06-1.27c0.03-0.54,0.09-1.08,0.11-1.62c0.03-0.74,0.04-1.49,0.06-2.23
		c0.01-0.31,0-0.63,0-0.94c0.02-0.96,0.03-1.92,0.06-2.89c0.01-0.38,0.05-0.77,0.05-1.15c0.01-0.84,0.01-1.67,0-2.51
		c0-0.24-0.01-0.49-0.06-0.73c-0.06-0.27-0.27-0.39-0.54-0.4C217.87,85.08,217.67,85.09,217.47,85.08L217.47,85.08z"></path>
        <path class="st0 DXnXMSIh_4" d="M274.55,93.21c0.63,0.01,1.25,0.05,1.75-0.42c0.4-0.38,0.63-0.86,0.73-1.38c0.09-0.46,0.09-0.95,0.12-1.42
		c0.01-0.08-0.01-0.17-0.03-0.25c-0.06-0.26,0.02-0.45,0.22-0.49c0.17-0.03,0.49,0.22,0.49,0.41c-0.01,0.39-0.03,0.79-0.06,1.18
		c-0.03,0.5-0.08,1.01-0.11,1.51c-0.03,0.52-0.05,1.03-0.05,1.55c0,0.33,0.04,0.65,0.07,0.98c0.01,0.12,0.03,0.24,0.04,0.36
		c0.06,0.65,0.11,1.3,0.17,1.96c0.03,0.28-0.06,0.51-0.26,0.55c-0.26,0.05-0.5-0.05-0.53-0.25c-0.04-0.3-0.1-0.61-0.06-0.89
		c0.08-0.52-0.05-0.99-0.24-1.46c-0.09-0.22-0.21-0.43-0.32-0.65c-0.24-0.46-0.66-0.7-1.15-0.8c-0.23-0.05-0.48,0-0.71,0.03
		c-0.04,0.01-0.08,0.15-0.09,0.23c-0.01,0.2-0.01,0.4-0.01,0.6c0.01,0.37,0.03,0.74,0.03,1.1c0,0.2-0.03,0.41-0.04,0.61
		c-0.01,0.45-0.01,0.89,0,1.34c0.01,0.4,0.06,0.79,0.05,1.19c-0.01,0.5-0.07,1.01-0.1,1.51c-0.04,0.63,0.16,1.05,0.9,1.06
		c0.76,0.01,1.52-0.05,2.28-0.11c0.25-0.02,0.45-0.16,0.61-0.39c0.21-0.31,0.52-0.55,0.7-0.88c0.42-0.78,0.88-1.55,0.98-2.46
		c0.06-0.52,0.16-1.03,0.21-1.54c0.02-0.26,0.19-0.29,0.36-0.29c0.18,0,0.41,0.3,0.39,0.46c-0.09,0.62-0.11,1.25-0.12,1.88
		c-0.01,0.95-0.1,1.89-0.15,2.84c-0.01,0.14,0.02,0.28,0.04,0.42c0.09,0.63-0.2,0.84-0.81,0.81c-0.64-0.03-1.28-0.04-1.93-0.06
		c-0.31-0.01-0.62-0.03-0.93-0.04c-0.08,0-0.17-0.01-0.25-0.01c-1.27-0.04-2.54-0.08-3.81-0.11c-0.55-0.02-1.09-0.05-1.64-0.05
		c-0.29,0-0.58,0.06-0.87,0.04c-0.13-0.01-0.27-0.11-0.36-0.2c-0.04-0.04,0.01-0.2,0.05-0.28c0.09-0.15,0.23-0.11,0.39-0.11
		c0.39,0.01,0.78-0.02,1.16-0.11c0.27-0.06,0.58-0.66,0.46-0.96c-0.16-0.39,0.05-0.71,0.03-1.06c-0.02-0.31,0.04-0.62,0.05-0.93
		c0.01-0.45-0.01-0.91,0.01-1.36c0.02-0.41,0.08-0.82,0.1-1.23c0.01-0.2-0.05-0.41-0.05-0.61c0.01-0.47,0.04-0.94,0.05-1.41
		c0.02-0.85,0.04-1.7,0.06-2.55c0.01-0.37-0.01-0.74,0-1.11c0.01-0.62,0.05-1.25,0.05-1.87c0-0.45,0-0.91-0.06-1.35
		c-0.05-0.39-0.21-0.67-0.69-0.64c-0.33,0.02-0.65,0.05-0.98,0.05c-0.1,0-0.21-0.07-0.28-0.13c-0.02-0.02,0.04-0.16,0.09-0.23
		c0.18-0.22,0.41-0.25,0.69-0.23c0.54,0.05,1.08,0.02,1.62,0.04c0.15,0,0.3,0.05,0.44,0.05c0.35-0.01,0.69-0.05,1.04-0.05
		c0.26,0,0.52,0.05,0.78,0.05c0.4,0,0.79-0.05,1.19-0.05c0.82,0.01,1.64,0.03,2.46,0.05c0.34,0.01,0.68,0.04,1.01,0.05
		c0.3,0.01,0.45,0.18,0.47,0.47c0.05,0.68,0.13,1.36,0.16,2.04c0.03,0.56-0.01,1.12,0.02,1.68c0.02,0.37,0.1,0.74,0.14,1.11
		c0.03,0.26,0.11,0.53-0.17,0.71c-0.09,0.06-0.23,0.13-0.29,0.09c-0.11-0.07-0.25-0.22-0.24-0.31c0.08-0.61-0.25-1.14-0.32-1.72
		c-0.05-0.44-0.11-0.86-0.31-1.26c-0.14-0.28-0.24-0.58-0.38-0.86c-0.11-0.22-0.24-0.42-0.37-0.62c-0.22-0.34-0.55-0.53-0.93-0.67
		c-0.61-0.22-1.23-0.2-1.85-0.12c-0.19,0.02-0.39-0.04-0.58-0.05c-0.26-0.01-0.37,0.11-0.37,0.37c0,0.51,0.01,1.03,0,1.54
		c-0.03,1.4-0.07,2.81-0.11,4.21C274.59,92.63,274.57,92.91,274.55,93.21z"></path>
        <path class="st0 DXnXMSIh_5" d="M248.58,100.83c0.6,0.02,1.2,0.06,1.75-0.28c0.13-0.08,0.26-0.16,0.36-0.27c0.65-0.71,1.07-1.55,1.37-2.45
		c0.26-0.77,0.36-1.58,0.44-2.39c0.01-0.1,0.08-0.25,0.15-0.26c0.11-0.02,0.3,0,0.35,0.08c0.09,0.13,0.13,0.31,0.13,0.48
		c0,0.33-0.05,0.65-0.07,0.98c-0.03,0.55-0.04,1.11-0.06,1.67c-0.02,0.82-0.04,1.64-0.06,2.46c0,0.15,0,0.32-0.07,0.44
		c-0.06,0.09-0.22,0.18-0.34,0.18c-0.56,0-1.13-0.04-1.69-0.05c-0.7-0.01-1.4,0.01-2.1,0c-0.71-0.01-1.41-0.03-2.12-0.06
		c-0.56-0.02-1.12-0.1-1.68-0.1c-0.59,0-1.18,0.11-1.77,0.09c-0.27-0.01-0.54-0.22-0.79-0.36c-0.05-0.03-0.08-0.25-0.05-0.27
		c0.11-0.06,0.27-0.13,0.36-0.09c0.32,0.18,0.64,0.2,0.99,0.12c0.58-0.14,0.73-0.26,0.79-0.87c0.04-0.42,0.01-0.85,0.01-1.28
		c0-0.09,0-0.19,0-0.28c0.02-0.3,0.04-0.6,0.05-0.9c0.02-0.39,0.05-0.79,0.06-1.18c0.02-1.05,0.04-2.1,0.06-3.16
		c0.01-0.38-0.04-0.77,0.01-1.14c0.11-0.82,0.02-1.64,0.04-2.46c0.02-0.87,0.01-1.75,0-2.62c0-0.26-0.03-0.52-0.06-0.78
		c-0.03-0.27-0.25-0.48-0.52-0.5c-0.44-0.04-0.88-0.08-1.32-0.11c-0.16-0.01-0.25-0.08-0.2-0.22c0.04-0.1,0.16-0.23,0.24-0.22
		c0.6,0.02,1.2,0.07,1.79,0.1c0.15,0.01,0.31,0,0.46,0c0.36,0.02,0.71,0.05,1.07,0.05c0.29,0,0.58-0.05,0.87-0.05
		c0.43,0,0.87,0.05,1.3,0.05c0.86,0.01,1.73,0,2.59,0.01c0.37,0,0.73,0.03,1.1,0.06c0.33,0.03,0.41,0.16,0.36,0.5
		c-0.02,0.14,0.04,0.29,0.04,0.44c0.02,0.65,0.02,1.3,0.06,1.95c0.04,0.56,0.13,1.11,0.19,1.66c0.04,0.35,0.07,0.71,0.08,1.06
		c0,0.25-0.16,0.36-0.41,0.35c-0.26,0-0.27-0.17-0.27-0.37c0-0.35,0.04-0.71-0.01-1.06c-0.05-0.36-0.21-0.71-0.29-1.07
		c-0.14-0.65-0.52-1.18-0.83-1.74c-0.1-0.18-0.21-0.35-0.29-0.54c-0.23-0.58-0.76-0.74-1.28-0.79c-0.7-0.06-1.4-0.01-2.11-0.02
		c-0.26,0-0.38,0.12-0.37,0.38c0,0.52,0,1.03,0,1.55c0,0.47,0.01,0.95,0,1.42c-0.01,0.49-0.04,0.98-0.05,1.47
		c-0.02,0.62-0.04,1.24-0.06,1.87c-0.01,0.24,0.2,0.27,0.35,0.29c0.65,0.1,1.18-0.12,1.62-0.61c0.43-0.5,0.52-1.12,0.64-1.72
		c0.09-0.42,0.13-0.85-0.04-1.27c-0.06-0.16,0.09-0.32,0.26-0.3c0.22,0.02,0.46,0.24,0.46,0.46c-0.01,0.4-0.06,0.8-0.09,1.2
		c-0.03,0.39-0.07,0.79-0.07,1.18c-0.01,0.66-0.03,1.33,0,1.99c0.03,0.77,0.1,1.53,0.17,2.3c0.03,0.31,0.08,0.61,0.11,0.91
		c0.03,0.22-0.11,0.4-0.31,0.42c-0.32,0.03-0.49-0.09-0.48-0.36c0.02-0.54,0.04-1.07-0.12-1.6c-0.2-0.67-0.34-1.35-0.98-1.79
		c-0.4-0.27-0.84-0.3-1.29-0.28c-0.08,0-0.22,0.24-0.22,0.37c-0.01,0.38,0.04,0.75,0.04,1.13c0,0.27-0.04,0.54-0.05,0.81
		c-0.01,0.54-0.01,1.08,0,1.62c0,0.17,0.11,0.34,0.1,0.51c-0.02,0.7-0.09,1.41-0.1,2.11c-0.01,0.29,0,0.63,0.14,0.87
		c0.1,0.16,0.42,0.24,0.66,0.27C247.93,100.86,248.26,100.83,248.58,100.83z"></path>
        <path class="st0 DXnXMSIh_6" d="M238.1,95.6c0.03-0.14,0.06-0.23,0.07-0.32c0.01-0.17,0-0.34,0-0.52c0-0.84,0-1.69,0-2.53
		c0-0.43-0.01-0.86,0-1.28c0.03-0.68,0.1-1.37,0.1-2.05c0-0.66-0.06-1.33-0.11-1.99c-0.03-0.41-0.14-0.79-0.45-1.07
		c-0.13-0.12-0.29-0.24-0.45-0.27c-0.37-0.07-0.76-0.09-1.14-0.12c-0.22-0.02-0.37-0.11-0.39-0.32c-0.02-0.23,0.19-0.43,0.43-0.42
		c0.84,0.05,1.68,0.11,2.52,0.16c0.16,0.01,0.32-0.03,0.47-0.03c0.16-0.01,0.32,0,0.48,0c0.22,0,0.45,0.01,0.66-0.01
		c0.25-0.03,0.55,0.14,0.6,0.39c0.04,0.18-0.11,0.31-0.32,0.28c-0.65-0.1-1.43,0.45-1.5,1.14c-0.02,0.18-0.09,0.36-0.11,0.54
		c-0.03,0.37-0.04,0.73-0.06,1.1c-0.02,0.45-0.05,0.9-0.05,1.35c-0.01,0.57,0.01,1.14-0.01,1.71c-0.02,0.78-0.07,1.56-0.11,2.34
		c-0.02,0.44-0.03,0.89-0.06,1.33c-0.04,0.59-0.11,1.17-0.16,1.76c-0.01,0.13,0,0.27,0,0.4c0,0.46-0.01,0.92,0,1.37
		c0.01,0.73,0.03,1.45,0.05,2.18c0,0.11,0.03,0.24-0.01,0.34c-0.04,0.13-0.1,0.3-0.2,0.34c-0.18,0.07-0.37,0.01-0.45-0.21
		c-0.14-0.36-0.27-0.73-0.42-1.09c-0.37-0.86-0.76-1.7-1.14-2.56c-0.4-0.92-0.8-1.85-1.2-2.78c-0.1-0.24-0.23-0.47-0.34-0.7
		c-0.53-1.16-1.05-2.33-1.59-3.49c-0.24-0.52-0.55-1.01-0.78-1.53c-0.26-0.59-0.47-1.2-0.7-1.81c-0.02-0.06-0.07-0.12-0.1-0.18
		c-0.02,0.01-0.05,0.01-0.07,0.02c0.01,0.2,0.03,0.39,0.04,0.59c0.02,0.36,0.05,0.71,0.05,1.07c0.02,0.64,0.04,1.28,0.02,1.91
		c-0.02,0.91-0.08,1.82-0.1,2.73c-0.01,0.57,0.03,1.15,0.04,1.72c0,0.1-0.05,0.2-0.05,0.3c0,0.64,0,1.27-0.01,1.91
		c0,0.2-0.06,0.39-0.05,0.58c0.04,0.55,0.09,1.1,0.17,1.64c0.05,0.36,0.72,0.92,1.13,0.97c0.23,0.03,0.48,0.01,0.71,0
		c0.22-0.01,0.39,0.11,0.42,0.32c0.03,0.24-0.16,0.48-0.41,0.47c-0.56-0.02-1.12-0.08-1.68-0.1c-0.62-0.02-1.24-0.02-1.85-0.01
		c-0.39,0-0.79,0.05-1.18,0.05c-0.18,0-0.34-0.1-0.33-0.34c0.01-0.25,0.18-0.3,0.37-0.33c0.3-0.05,0.62-0.04,0.91-0.14
		c0.65-0.23,0.9-0.82,1.04-1.42c0.09-0.37,0.02-0.78,0.02-1.17c0.01-0.44,0.02-0.89,0.03-1.33c0-0.07,0.02-0.15,0.02-0.22
		c0-0.34,0-0.69,0-1.03c0.02-0.87,0.03-1.74,0.06-2.6c0.02-0.68,0.05-1.35,0.07-2.03c0.01-0.3-0.01-0.6-0.02-0.9
		c-0.01-0.33,0.03-0.65-0.03-0.99c-0.07-0.44,0.08-0.92,0.12-1.38c0.04-0.5,0.11-1-0.25-1.45c-0.25-0.31-0.87-0.57-1.27-0.54
		c-0.19,0.02-0.4-0.05-0.57-0.15c-0.09-0.06-0.18-0.29-0.14-0.37c0.07-0.13,0.23-0.26,0.38-0.3c0.16-0.04,0.35,0.03,0.53,0.04
		c0.53,0.02,1.06-0.02,1.6,0.1c0.41,0.09,0.85,0.03,1.28,0.01c0.25-0.01,0.39,0.09,0.48,0.3c0.52,1.18,1.03,2.36,1.56,3.53
		c0.42,0.92,0.87,1.83,1.29,2.75c0.33,0.71,0.65,1.43,0.98,2.13c0.18,0.38,0.39,0.74,0.58,1.11
		C237.73,94.84,237.89,95.18,238.1,95.6z"></path>
        <path class="st0 DXnXMSIh_7" d="M333.61,88.85c0.03,0.33,0.07,0.66,0.09,0.99c0.01,0.15-0.05,0.29-0.04,0.44c0.01,0.32,0.05,0.64,0.05,0.96
		c0,0.53-0.04,1.05-0.05,1.58c-0.01,0.5,0,1.01,0,1.51c0,0.55,0,1.1,0,1.65c0,0.51,0,1.03,0,1.54c0,0.5,0.01,1.01,0,1.51
		c-0.01,0.38-0.01,0.76-0.06,1.13c-0.09,0.67,0.26,1.5,0.82,1.84c0.24,0.15,0.5,0.28,0.81,0.24c0.17-0.02,0.34-0.01,0.51,0
		c0.24,0.01,0.36,0.16,0.36,0.41s-0.19,0.26-0.35,0.27c-0.24,0-0.48-0.04-0.73-0.05c-0.55-0.02-1.09-0.06-1.64-0.05
		c-0.8,0-1.61,0.03-2.41,0.05c-0.22,0.01-0.41-0.04-0.44-0.28c-0.03-0.26,0.17-0.32,0.38-0.35c0.27-0.03,0.54-0.05,0.8-0.11
		c0.62-0.14,1.2-0.88,1.2-1.51c0-0.7-0.01-1.41,0-2.11c0-0.31,0.05-0.62,0.07-0.92c0.01-0.13-0.02-0.27-0.02-0.4
		c0.02-0.94,0.04-1.89,0.05-2.83c0.01-0.48,0-0.95,0-1.43c0-0.53-0.01-1.06,0-1.6c0.01-0.42,0.1-0.84,0.1-1.26
		c0.01-0.7,0.02-1.4-0.07-2.09c-0.05-0.43-0.42-0.71-0.83-0.86c-0.3-0.11-0.6-0.15-0.93-0.07c-0.17,0.04-0.4,0.07-0.43-0.22
		c-0.02-0.17,0.23-0.46,0.42-0.45c0.46,0.02,0.92,0.06,1.37,0.09c0.08,0.01,0.17,0.01,0.25,0.01c0.64,0,1.27,0,1.91,0
		c0.24,0,0.38,0.1,0.43,0.35c0.02,0.13,0.07,0.25,0.12,0.37c0.21,0.48,0.42,0.96,0.64,1.44c0.17,0.37,0.37,0.72,0.54,1.09
		c0.35,0.75,0.68,1.52,1.03,2.27c0.27,0.57,0.57,1.13,0.84,1.71c0.37,0.76,0.72,1.52,1.08,2.28c0.19,0.39,0.38,0.78,0.58,1.16
		c0.03,0.06,0.1,0.1,0.21,0.2c0-0.32,0-0.57,0-0.82c0-0.5,0-0.99,0-1.49c0-0.27,0-0.55,0-0.82c0.02-1.32,0.04-2.63,0.06-3.95
		c0.01-0.55,0.01-1.1,0-1.65c-0.01-0.69-0.67-1.36-1.36-1.38c-0.24-0.01-0.48,0-0.71,0c-0.21,0-0.42-0.19-0.42-0.37
		c0-0.17,0.22-0.37,0.42-0.37c0.21,0.01,0.43,0.04,0.64,0.05c0.59,0.04,1.18,0.11,1.77,0.11c0.61,0,1.22-0.06,1.82-0.1
		c0.07,0,0.13-0.01,0.2,0c0.25,0,0.48,0.18,0.48,0.35c-0.01,0.19-0.3,0.38-0.54,0.33c-0.37-0.09-0.68,0.04-0.93,0.28
		c-0.18,0.17-0.35,0.38-0.43,0.61c-0.13,0.39-0.22,0.81-0.24,1.22c-0.05,0.77-0.06,1.55-0.06,2.32c0,0.41,0.04,0.8-0.04,1.22
		c-0.09,0.49-0.01,1-0.03,1.51c-0.02,0.61-0.08,1.22-0.11,1.83c-0.01,0.3,0.02,0.61-0.01,0.91c-0.04,0.45-0.14,0.9-0.15,1.36
		c-0.01,0.42,0.05,0.84,0.07,1.26c0.01,0.14-0.03,0.27-0.03,0.41c0.01,0.62,0.04,1.25,0.05,1.87c0.01,0.29,0.01,0.59-0.01,0.88
		c-0.01,0.08-0.09,0.19-0.17,0.23c-0.06,0.03-0.21,0-0.25-0.06c-0.34-0.43-0.59-0.91-0.78-1.43c-0.15-0.41-0.34-0.81-0.52-1.21
		c-0.2-0.44-0.41-0.87-0.61-1.31c-0.31-0.67-0.61-1.35-0.91-2.02c-0.25-0.56-0.5-1.13-0.76-1.68c-0.38-0.81-0.79-1.61-1.17-2.42
		c-0.2-0.42-0.38-0.86-0.57-1.29c-0.06-0.13-0.12-0.25-0.18-0.38c-0.32-0.68-0.65-1.37-0.97-2.05c-0.07-0.15-0.11-0.32-0.16-0.48
		C333.68,88.83,333.65,88.84,333.61,88.85z"></path>
        <path class="st0 DXnXMSIh_8" d="M328.2,94.63c-0.09,0.56-0.16,1.12-0.27,1.68c-0.11,0.57-0.24,1.14-0.41,1.69c-0.35,1.12-0.92,2.14-1.52,3.14
		c-0.38,0.64-0.93,1.08-1.51,1.46c-0.52,0.34-1.11,0.49-1.78,0.46c-1.29-0.06-2.04-0.84-2.66-1.8c-0.4-0.63-0.78-1.28-1.1-1.96
		c-0.2-0.41-0.24-0.89-0.41-1.32c-0.26-0.66-0.36-1.36-0.43-2.06c-0.07-0.6-0.01-1.21,0.01-1.82c0.01-0.35,0.03-0.7,0.09-1.03
		c0.06-0.36,0.18-0.72,0.29-1.07c0.13-0.42,0.25-0.85,0.43-1.25c0.27-0.6,0.56-1.18,0.88-1.76c0.38-0.69,0.86-1.31,1.43-1.86
		c0.56-0.54,1.23-0.89,2.02-0.86c0.43,0.01,0.87,0.09,1.29,0.18c0.6,0.14,0.99,0.61,1.32,1.07c0.48,0.66,0.87,1.37,1.21,2.11
		c0.37,0.8,0.61,1.63,0.83,2.46c0.12,0.45,0.14,0.92,0.19,1.38c0.04,0.37,0.05,0.75,0.07,1.12
		C328.17,94.63,328.18,94.63,328.2,94.63z M323.35,86.72c-0.18,0.02-0.37,0.03-0.55,0.08c-0.47,0.12-0.88,0.32-1.17,0.74
		c-0.44,0.63-0.57,1.36-0.68,2.09c-0.11,0.67-0.13,1.36-0.18,2.04c-0.02,0.3-0.04,0.6-0.06,0.9c-0.06,1.07-0.12,2.14-0.16,3.21
		c-0.02,0.41-0.01,0.82-0.01,1.23c0.01,0.34-0.02,0.69,0.05,1.01c0.1,0.42-0.04,1.62,0.04,1.77c0.04,0.08,0.05,0.18,0.07,0.27
		c0.11,0.44,0.19,0.88,0.35,1.3c0.33,0.89,1.42,1.34,2.5,1.04c0.71-0.2,1.15-0.67,1.4-1.33c0.11-0.29,0.17-0.6,0.23-0.91
		c0.03-0.13-0.01-0.27,0.01-0.4c0.06-0.3,0.15-0.59,0.23-0.88c0.12-0.43,0.05-0.88,0.14-1.33c0.11-0.6,0.05-1.23,0.12-1.85
		c0.1-0.89,0.1-1.78,0.13-2.67c0.01-0.32,0-0.65,0-0.97c0-0.28-0.01-0.55,0-0.83c0.01-0.2,0.06-0.41,0.05-0.61
		c-0.02-0.45-0.02-0.91-0.12-1.34c-0.11-0.52-0.25-1.06-0.5-1.52C324.85,87.04,324.16,86.74,323.35,86.72z"></path>
        <path class="st0 DXnXMSIh_9" d="M350.96,94.99c0.06-0.08,0.12-0.12,0.14-0.18c0.26-0.76,0.5-1.53,0.78-2.28c0.4-1.08,0.86-2.13,1.25-3.21
		c0.12-0.35,0.17-0.76,0.12-1.13c-0.03-0.22-0.29-0.46-0.51-0.58c-0.3-0.16-0.63-0.31-1.01-0.27c-0.1,0.01-0.28-0.07-0.29-0.14
		c-0.03-0.1,0.03-0.27,0.11-0.34c0.1-0.09,0.27-0.12,0.41-0.13c0.2-0.01,0.41,0.04,0.61,0.05c0.75,0.02,1.51,0.05,2.26,0.06
		c0.24,0,0.49-0.06,0.73-0.04c0.19,0.01,0.4,0.06,0.57,0.15c0.08,0.05,0.12,0.26,0.09,0.37c-0.03,0.09-0.19,0.19-0.3,0.2
		c-0.99,0.08-1.65,0.64-1.9,1.62c-0.04,0.17-0.16,0.31-0.22,0.47c-0.31,0.77-0.62,1.54-0.91,2.32c-0.1,0.27-0.15,0.57-0.23,0.85
		c-0.02,0.07-0.05,0.14-0.08,0.2c-0.2,0.41-0.42,0.82-0.61,1.24c-0.16,0.34-0.34,0.69-0.43,1.05c-0.09,0.35-0.1,0.72-0.12,1.08
		c-0.03,0.4-0.05,0.81-0.07,1.21c-0.02,0.51-0.03,1.02-0.04,1.52c0,0.08,0.01,0.16,0.01,0.23c0.01,0.91,0.01,1.83,0.06,2.74
		c0.01,0.13,0.21,0.31,0.36,0.35c0.49,0.14,0.98,0.21,1.48,0.02c0.19-0.07,0.48,0.1,0.53,0.27c0.05,0.19-0.11,0.43-0.35,0.45
		c-0.31,0.03-0.63,0.01-0.94,0.01c-0.19,0-0.38,0-0.57-0.01c-1.06-0.02-2.12-0.05-3.17-0.05c-0.57,0-1.14,0.07-1.71,0.1
		c-0.12,0.01-0.27-0.01-0.34-0.08c-0.11-0.1-0.15-0.27-0.23-0.4c0.15-0.07,0.29-0.18,0.45-0.2c0.26-0.04,0.54-0.03,0.81-0.03
		c0.13,0,0.27,0.01,0.4-0.01c0.72-0.13,0.69-0.21,0.82-0.82c0.04-0.19-0.01-0.39-0.01-0.59c0-0.35,0.02-0.71,0.02-1.06
		c0-0.23-0.01-0.46,0-0.69c0.01-0.42,0.04-0.85,0.05-1.27c0-0.15-0.04-0.29-0.05-0.44c-0.02-0.33,0.13-0.66-0.05-0.99
		c-0.03-0.05,0.02-0.14,0.02-0.22c-0.01-0.23,0.01-0.47-0.06-0.68c-0.27-0.79-0.57-1.58-0.88-2.36c-0.19-0.5-0.41-0.99-0.61-1.48
		c-0.27-0.68-0.53-1.36-0.81-2.04c-0.2-0.48-0.45-0.93-0.61-1.42c-0.13-0.41-0.34-0.74-0.71-0.92c-0.27-0.13-0.58-0.17-0.88-0.23
		c-0.13-0.02-0.28,0.04-0.42,0.02c-0.08-0.01-0.19-0.11-0.2-0.18c-0.01-0.08,0.06-0.2,0.13-0.24c0.1-0.06,0.23-0.08,0.35-0.07
		c1.24,0.01,2.48,0.05,3.72,0.05c0.72,0,1.44-0.07,2.17-0.11c0.21-0.01,0.45,0.01,0.48,0.24c0.04,0.24-0.18,0.34-0.4,0.37
		c-0.14,0.02-0.28,0-0.42,0c-0.45,0.02-0.9,0-1.33,0.07c-0.33,0.05-0.36,0.14-0.23,0.53c0.25,0.73,0.52,1.46,0.81,2.18
		c0.32,0.8,0.68,1.58,1.01,2.37c0.31,0.75,0.59,1.51,0.88,2.27C350.86,94.83,350.9,94.89,350.96,94.99z"></path>
        <path class="st0 DXnXMSIh_10" d="M284.32,95.47c0.01,1.13,0.21,2.24,0.51,3.33c0.17,0.62,0.44,1.19,0.78,1.74c0.4,0.62,0.98,1,1.63,1.25
		c0.59,0.22,1.19,0.18,1.76-0.14c0.1-0.06,0.22-0.1,0.34-0.13c0.52-0.11,0.86-0.45,1.11-0.9c0.18-0.33,0.36-0.66,0.52-1.01
		c0.05-0.11,0.02-0.25,0.03-0.38c0-0.05-0.04-0.12-0.02-0.16c0.16-0.27,0.04-0.55,0.04-0.82c0-0.13-0.13-0.26-0.16-0.4
		c-0.16-0.88-0.77-1.44-1.45-1.91c-1.01-0.7-2.05-1.37-3.08-2.06c-0.76-0.51-1.43-1.13-1.9-1.91c-0.3-0.49-0.47-1.05-0.53-1.65
		c-0.06-0.62,0-1.23,0.13-1.83c0.06-0.27,0.16-0.53,0.3-0.77c0.52-0.92,1.16-1.76,2.24-2.01c0.64-0.15,1.32-0.27,1.99,0.11
		c0.43,0.25,0.86,0.47,1.16,0.89c0.1,0.14,0.26,0.23,0.4,0.35c0.28,0.24,0.55,0.17,0.71-0.27c0.06-0.16,0.06-0.35,0.07-0.52
		c0.01-0.2,0.04-0.39,0.26-0.44c0.14-0.03,0.33,0.27,0.31,0.48c-0.04,0.34-0.11,0.68-0.12,1.03c-0.02,0.49-0.01,0.97-0.01,1.46
		c0,0.09,0.02,0.19,0.02,0.28c-0.02,0.74-0.04,1.47-0.05,2.21c0,0.19,0.07,0.39,0.04,0.58c-0.02,0.17-0.11,0.35-0.21,0.48
		c-0.04,0.05-0.25,0.02-0.34-0.03c-0.07-0.04-0.12-0.19-0.11-0.29c0.05-0.93-0.1-1.82-0.34-2.71c-0.22-0.82-0.48-1.64-1.05-2.27
		c-0.39-0.44-0.9-0.83-1.55-0.82c-0.39,0-0.79,0.01-1.16,0.12c-0.67,0.2-1.14,0.69-1.39,1.33c-0.11,0.27-0.05,0.62-0.02,0.93
		c0.04,0.32,0.12,0.65,0.24,0.95c0.09,0.23,0.23,0.48,0.42,0.64c0.49,0.42,1,0.82,1.53,1.18c0.68,0.45,1.4,0.84,2.08,1.27
		c0.46,0.29,0.9,0.62,1.35,0.94c0.07,0.05,0.14,0.11,0.18,0.18c0.43,0.69,0.88,1.35,1.06,2.18c0.25,1.19,0.26,2.36-0.12,3.51
		c-0.23,0.69-0.6,1.32-1.1,1.86c-0.52,0.56-1.16,0.89-1.9,1.11c-1.04,0.3-1.96,0.08-2.83-0.47c-0.24-0.16-0.43-0.41-0.64-0.61
		c-0.23-0.21-0.46-0.44-0.71-0.62c-0.23-0.16-0.54-0.01-0.59,0.27c-0.06,0.35-0.1,0.7-0.11,1.05c-0.01,0.2-0.06,0.36-0.26,0.41
		c-0.13,0.03-0.33-0.24-0.31-0.43c0.03-0.49,0.08-0.97,0.11-1.45c0.02-0.27,0-0.53,0.01-0.8c0.02-1.34,0.03-2.68,0.06-4.02
		c0.01-0.34,0.05-0.69,0.12-1.03c0.02-0.11,0.18-0.22,0.31-0.26c0.16-0.06,0.26,0.03,0.25,0.23
		C284.31,94.96,284.32,95.21,284.32,95.47z"></path>
        <path class="st0 DXnXMSIh_11" d="M363.51,98.81c0.07-0.22,0.12-0.35,0.16-0.49c0.09-0.38,0.16-0.76,0.27-1.13c0.22-0.78,0.46-1.56,0.68-2.34
		c0.15-0.55,0.27-1.11,0.42-1.66c0.24-0.91,0.5-1.82,0.74-2.73c0.16-0.59,0.34-1.18,0.28-1.81c-0.02-0.28-0.1-0.51-0.36-0.65
		c-0.35-0.19-0.69-0.41-1.12-0.36c-0.11,0.01-0.22-0.02-0.33-0.06c-0.21-0.07-0.32-0.25-0.23-0.44c0.06-0.12,0.26-0.23,0.4-0.23
		c0.61,0.01,1.22,0.06,1.82,0.1c0.33,0.02,0.66,0.05,0.99,0.05c0.54,0.01,1.08,0.01,1.62,0c0.22,0,0.4,0.04,0.43,0.29
		c0.02,0.2-0.16,0.33-0.43,0.34c-0.86,0.04-1.47,0.4-1.81,1.23c-0.46,1.15-0.81,2.34-1.12,3.54c-0.09,0.36-0.24,0.7-0.34,1.05
		c-0.31,1.07-0.61,2.15-0.91,3.23c-0.12,0.44-0.22,0.89-0.35,1.33c-0.09,0.29-0.23,0.55-0.32,0.84c-0.18,0.55-0.35,1.11-0.52,1.66
		c-0.12,0.39-0.23,0.78-0.34,1.17c-0.1,0.37-0.18,0.75-0.29,1.13c-0.05,0.16-0.12,0.34-0.22,0.47c-0.07,0.09-0.24,0.17-0.33,0.14
		c-0.12-0.05-0.26-0.19-0.29-0.31c-0.12-0.57-0.19-1.15-0.3-1.73c-0.12-0.68-0.25-1.37-0.4-2.04c-0.1-0.43-0.25-0.85-0.35-1.28
		c-0.18-0.84-0.33-1.69-0.5-2.53c-0.06-0.29-0.16-0.57-0.23-0.86c-0.12-0.47-0.22-0.93-0.34-1.4c-0.09-0.34-0.21-0.67-0.29-1.01
		c-0.08-0.35-0.09-0.72-0.17-1.07c-0.11-0.48-0.26-0.94-0.37-1.42c-0.1-0.44-0.21-0.89-0.24-1.34c-0.03-0.46-0.43-0.92-0.87-1.01
		c-0.33-0.06-0.69,0.01-1.03,0.05c-0.3,0.04-0.5-0.02-0.55-0.22c-0.04-0.19,0.26-0.59,0.47-0.58c0.39,0.01,0.79,0.03,1.18,0.05
		c0.54,0.03,1.08,0.08,1.63,0.11c0.47,0.03,0.94,0.06,1.41,0.05c0.66,0,1.32-0.03,1.98-0.05c0.22-0.01,0.36,0.09,0.37,0.32
		c0.01,0.2-0.07,0.29-0.28,0.3c-0.51,0.03-1.03,0.07-1.54,0.11c-0.28,0.02-0.44,0.26-0.4,0.57c0.05,0.32,0.11,0.64,0.17,0.96
		c0.12,0.66,0.23,1.32,0.37,1.97c0.07,0.31,0.21,0.61,0.27,0.92c0.11,0.51,0.18,1.02,0.26,1.53c0.01,0.04,0,0.08,0,0.11
		c0.11,0.41,0.23,0.82,0.32,1.23c0.22,0.95,0.43,1.89,0.64,2.84c0.06,0.26,0.08,0.53,0.12,0.8
		C363.4,98.63,363.44,98.68,363.51,98.81z"></path>
        <path class="st0 DXnXMSIh_12" d="M224.52,82.57c-0.05,0.06-0.12,0.19-0.23,0.27c-0.43,0.33-0.88,0.63-1.3,0.98c-0.49,0.41-1.08,0.5-1.68,0.58
		c-0.29,0.04-0.59,0.02-0.89,0c-0.09-0.01-0.18-0.1-0.27-0.15c0.06-0.08,0.11-0.2,0.19-0.24c0.15-0.06,0.32-0.07,0.48-0.11
		c0.63-0.19,1.12-0.55,1.36-1.19c0.04-0.11,0.06-0.23,0.12-0.34c0.09-0.17,0.2-0.29,0.45-0.19c0.34,0.13,0.68,0.1,1.02-0.09
		C224.07,81.91,224.53,82.17,224.52,82.57z"></path>

        <path transform="matrix(0.0538 -0.9986 0.9986 0.0538 220.6622 402.2111)" class="st0 DXnXMSIh_13" d="M321.47,84.67A1.09,0.78 0,1,1 323.65,84.67A1.09,0.78 0,1,1 321.47,84.67"></path>

        <path transform="matrix(0.0538 -0.9986 0.9986 0.0538 222.7374 404.633)" class="st0 DXnXMSIh_14" d="M323.79,84.79A1.09,0.78 0,1,1 325.96999999999997,84.79A1.09,0.78 0,1,1 323.79,84.79"></path>
</g>
    <style data-made-with="vivus-instant">.DXnXMSIh_0{stroke-dasharray:3249 3251;stroke-dashoffset:3250;animation:DXnXMSIh_draw 3700ms ease-in-out 0ms forwards;}.DXnXMSIh_1{stroke-dasharray:106 108;stroke-dashoffset:107;animation:DXnXMSIh_draw 3700ms ease-in-out 21ms forwards;}.DXnXMSIh_2{stroke-dasharray:106 108;stroke-dashoffset:107;animation:DXnXMSIh_draw 3700ms ease-in-out 42ms forwards;}.DXnXMSIh_3{stroke-dasharray:107 109;stroke-dashoffset:108;animation:DXnXMSIh_draw 3700ms ease-in-out 64ms forwards;}.DXnXMSIh_4{stroke-dasharray:106 108;stroke-dashoffset:107;animation:DXnXMSIh_draw 3700ms ease-in-out 85ms forwards;}.DXnXMSIh_5{stroke-dasharray:106 108;stroke-dashoffset:107;animation:DXnXMSIh_draw 3700ms ease-in-out 107ms forwards;}.DXnXMSIh_6{stroke-dasharray:108 110;stroke-dashoffset:109;animation:DXnXMSIh_draw 3700ms ease-in-out 128ms forwards;}.DXnXMSIh_7{stroke-dasharray:109 111;stroke-dashoffset:110;animation:DXnXMSIh_draw 3700ms ease-in-out 150ms forwards;}.DXnXMSIh_8{stroke-dasharray:80 82;stroke-dashoffset:81;animation:DXnXMSIh_draw 3700ms ease-in-out 171ms forwards;}.DXnXMSIh_9{stroke-dasharray:80 82;stroke-dashoffset:81;animation:DXnXMSIh_draw 3700ms ease-in-out 192ms forwards;}.DXnXMSIh_10{stroke-dasharray:91 93;stroke-dashoffset:92;animation:DXnXMSIh_draw 3700ms ease-in-out 214ms forwards;}.DXnXMSIh_11{stroke-dasharray:78 80;stroke-dashoffset:79;animation:DXnXMSIh_draw 3700ms ease-in-out 235ms forwards;}.DXnXMSIh_12{stroke-dasharray:11 13;stroke-dashoffset:12;animation:DXnXMSIh_draw 3700ms ease-in-out 257ms forwards;}.DXnXMSIh_13{stroke-dasharray:6 8;stroke-dashoffset:7;animation:DXnXMSIh_draw 3700ms ease-in-out 278ms forwards;}.DXnXMSIh_14{stroke-dasharray:6 8;stroke-dashoffset:7;animation:DXnXMSIh_draw 3700ms ease-in-out 300ms forwards;}@keyframes DXnXMSIh_draw{100%{stroke-dashoffset:0;}}@keyframes DXnXMSIh_fade{0%{stroke-opacity:1;}95.1219512195122%{stroke-opacity:1;}100%{stroke-opacity:0;}}</style></svg>
