<svg version="1.1" id="Layer_1" xmlns="http://www.w3.org/2000/svg" xmlns:xlink="http://www.w3.org/1999/xlink" x="0px" y="0px" viewBox="0 0 440 493" style="" xml:space="preserve">
<style type="text/css">
	.st0{fill:none;stroke:#FDC1BA;stroke-miterlimit:10;}
</style>
<path class="st0 YmOkTOXz_0" d="M93.26,363.24c0,0-1.54,4.85-1.76,6.21 M79.88,328.64c0,0,0.62,22.04,0.88,27.33c0.26,5.29,0,11.72-2.2,17.54
	s-1.58,8.73-1.58,8.73 M84.02,328.9c0,0,0.09,27.5,0.44,28.56c0.35,1.06,0.48,2.42,2.38,3.61c2.38,1.5,4.31,2.12,10.65,2.2
	 M97.88,366.59c0,0-8.41,2.38-18.26,12.83c-4.37,4.63-8.1,10.22-10.03,13.05c-1.94,2.82-7.75,10.58-9.68,14.28
	c-1.94,3.7-4.4,10.58-5.63,13.58s-2.82,7.93-3.87,13.75c-1.06,5.82-1.23,6.35-1.41,17.45c-0.18,11.11,2.82,17.63,3.7,20.27
	c0.88,2.64,6.34,8.11,11.79,11.46c5.46,3.35,12.15,10.4,22,6.7c9.86-3.7,19.54-5.29,31.16-22.39s14.79-27.15,19.89-45.49
	c5.11-18.34,3.35-32.09,1.06-38.08c-2.29-5.99-8.41-12.61-15.01-14.85c-6.6-2.25-9.99-2.91-9.99-2.91 M100.04,385.05
	c0,0-23.76,20.21-29.57,46.72c-4.75,21.68-2.64,44.96,10.21,49.89c12.85,4.94,33.1-16.04,39.96-29.97
	c6.87-13.93,12.59-24.14,12.59-52.01c0-23.18-17.34-21.33-17.34-21.33 M112.36,326.17l0.16,14.99c0,6.88-0.16,21.68,1.77,30.15
	c1.94,8.46,2.99,16.93,3.17,18.86c0.18,1.94,0.7,26.97,0.7,34.91s0,13.58-1.59,17.45c-1.58,3.88-7.04,8.29-10.03,8.29
	s-2.46-2.29-2.64-4.94c-0.18-2.64-1.06-39.14-1.06-45.13s-3.7-22.92-4.58-26.97c-0.88-4.06-0.53-45.13-0.53-45.13 M433.5,320.44
	c0,0,4.31,4.67,4.49,11.77c0.18,7.1-2.07,21.77-2.82,24.11 M423.32,355.09c1.39-0.2,7.62,2.94,8.28,4.53c0,0,2.67,4.23,0.76,10.21
	c-1.91,5.98-4.16,8.83-5.74,10.18c-1.58,1.36-6.04,3.87-8.85,2.12s-5.22-3.24-5.54-4.76c-0.33-1.52-0.6-6.77,1.78-11.47
	C416.59,360.81,421.94,355.29,423.32,355.09z M433.06,362.8l2.11-6.48c0,0,0.53,4.36-0.66,6.88c-0.29,0.61-0.77,1.79-1.36,3.27
	 M428.23,378.74c-0.39,0.88-0.72,1.58-0.98,2.04c-1.59,2.78-8.32,18.25-20.2,27.37s-19.03,9.01-27.86-0.26
	c-8.19-8.59,0.97-46.15,4.44-52.89c0,0,7.39-18.42,15.67-28.56c8.27-10.14,8.67-10.58,8.67-10.58s2.24-1.98,3.43-1.59
	c1.19,0.4,0.53,2.91,1.72,3.04s4.62-3.57,4.62-3.57s2.38-2.38,3.96-2.38s3.96-0.93,6.6-0.13c2.64,0.79,3.96,2.64,5.15,4.1
	c1.19,1.45,2.77,4.76,2.51,5.29c-0.26,0.53-3.56-0.93-5.81-0.93c-2.24,0-10.56,2.12-17.69,11.64c-7.13,9.52-17.43,28.3-20.99,42.45
	c-3.56,14.15-3.43,27.11,0,31.87c3.43,4.76,12.28,3.57,18.22-2.64c5.94-6.21,15.05-21.16,15.05-21.16 M383.64,355l-64-28.67
	c-1.14-5.31,3.31-6.33,3.31-6.33c13.78,6.22,63.93,27.68,63.93,27.68 M267.8,295.58c0,0,4.4-10.84,4.05-18.25 M227.93,279.89
	c0,0-7.92,16.13-5.63,29.53s8.27,16.93,12.32,17.54s13.91-1.41,20.86-10.14s9.15-13.31,9.77-14.63 M270.97,296.9
	c0,0,4.31-10.05,4.75-19.66 M216.49,282.18c0,0-6.86,13.31-4.05,28.47c2.82,15.16,10.91,21.07,19.28,22.65
	c8.36,1.59,21.92-5.91,29.31-17.54c7.39-11.64,7.22-12.34,7.22-12.34 M259.35,291.53c0,0-0.35-2.03-0.7-3.88s-0.7-7.93-0.09-10.58
	 M246.77,277.95c0,0-1.41,8.46-0.26,12.52c1.14,4.05,1.06,4.67,1.94,4.94c0.88,0.26,1.67,1.76,1.58,3.35s-0.7,4.85,0.53,5.29
	s4.05-0.27,5.19-1.06s2.29-2.12,2.82-3.44 M302.48,311.23L257.2,290.8c0,0-3.17-1.19-4.42,1.72c-1.33,3.09,0.53,4.3,2.91,5.29
	c2.38,0.99,56.77,25.32,56.77,25.32 M133.49,255.83c0,0,14.79,1.94,21.13,4.94c6.34,3,11.44,4.05,13.2,10.4
	c12.5-4.76,50.52-17.81,63.02-19.04s35.21-1.41,44.71,0c9.51,1.41,26.93,1.94,44.71-4.23s48.23-16.22,50.35-17.45
	c2.11-1.23,4.75-4.86-6.96-9.01c-11.71-4.14-65.66-19.39-70.42-20.27c-4.75-0.88-16.21-2.64-29.32,0.97
	c-13.32,3.67-57.55,13.77-59.93,16.15c-2.38,2.38-0.7,8.02-2.11,10.75s-1.06,8.2-29.84,17.37S133.49,255.83,133.49,255.83z
	 M67.74,263.63c0,0,0.36,0.43-0.03,0.86c-0.4,0.43-5.38,2.21-8.68,4.89c-3.3,2.68-9.95,4.78-5.9,14.04s20.6,11.55,29.22,12.96
	c8.63,1.41,29.32,0.71,40.58-3.26c11.35-4.01,18.09-7.8,18.4-12.96c0.24-4.07-3.43-11.72-15.67-14.63
	c-0.09-6.08-0.02-12.14-0.02-12.14 M324.65,328.57c0,0-3.29,4.02-4.41,3.95c-1.12-0.07-1.45-1.85-2.11-3.17
	c-0.66-1.32-2.57-2.12-2.57-2.12s-4.42-6.21-8.45-10.71c-4.03-4.49-7.39-8.46-8.12-11.24c-0.73-2.78,0.46-3.7-1.72-7.67
	s-11.22-20.23-11.22-20.23s-22.38-0.46-28.39-0.46c-6.01,0-32.68,2.58-44.76,6.41c-12.08,3.84-33.21,11.31-48.39,20.96
	s-22.51,13.95-31.36,16.99c-8.85,3.04-27.66,7.6-43.9,7.47s-38.42,0.73-50.04-4.17c-11.62-4.89-13.47-6.08-13.6-12.83
	c-0.13-6.74,0.53-24.99,12.28-33.59c11.75-8.59,22.05-12.69,29.84-14.54c0.4-13.62,0.97-17.59,2.11-19.17
	c1.14-1.59,5.72-4.67,6.25-6.26s1.14-5.11,7.57-7.05 M395.61,331.64c-2.99-4.23-9.07-22.92-9.86-28.91
	c-0.79-5.99-2.48-29.18-2.48-29.18c-1.06-13.31-3.77-17.19-6.41-21.68c9.77-4.41,7.83-10.58,7.75-18.6
	c-0.09-8.02-15.93-12.96-21.83-15.07c-5.9-2.12-52.37-15.69-67.16-19.04s-28.25-0.79-30.81-0.26c-2.55,0.53-23.41,6.7-46.91,11.72
	s-28.78,11.46-30.72,19.57c-1.94,8.11-18.57,12.08-29.4,15.69c-10.83,3.61-23.17,5.73-32.15,7.51c-0.2-10.38-4.29-12.03-5.87-12.76
	s-1.52-1.65-2.05-3.44c0,0-0.66-4.3-7.26-5.42 M83.05,38.84c0,0-9.51,0.13-13.2-0.79c-3.7-0.93-6.73-5.82-12.68-7.01
	c-5.94-1.19-10.96-1.45-18.62-0.13c-7.66,1.32-28.59,3.82-35.12-7.93C-2.37,12.53,10.31,1.82,25.36,4.2c0,0,16.77,3.57,22.84,4.1
	s11.35,0.53,17.56-3.57s16.77-2.51,22.97-1.98c6.21,0.53,20.33,0.26,23.37,0.4c3.04,0.13,15.71-0.26,20.46,2.91
	c4.75,3.17,12.81,5.82,20.99,5.02c8.19-0.79,30.1-3.97,38.55-2.78s23.37,4.1,22.31,16.93s-11.75,15.34-17.69,16.26
	c-5.94,0.93-19.54-0.93-28.39-2.51c-8.85-1.59-22.31-5.42-28.91-2.91c-6.6,2.51-10.3,4.23-12.28,4.63
	c-1.98,0.4-14.26,0.22-14.26,0.22 M83.06,41.71c0.06,21.26,0.46,154.49,0.58,184.37l-0.13,12.43c0,0,8.29,5.1,19.75,2.16
	c0.06-0.02,0.12-0.03,0.19-0.05c2.34-0.62,7.15-1.63,7.06-3.31c-0.19-3.62-0.43-41.91,0.11-83.74c0.59-44.86,1.78-93.78,2.15-108.34
	l0.11-4.31c0,0-5.11-0.44-11-2.64c-5.9-2.2-6.16-3.61-10.74-4.32c-4.58-0.71-6.78,0.71-7.48,2.03
	C82.96,37.3,83.06,41.71,83.06,41.71z M387.78,345.83c-4.23-6.08-10.47-27.41-12.15-37.64c-1.67-10.22-3.08-23.62-3.83-33.72
	c-0.8-10.81-6.07-17.85-6.07-17.85s-21.78,8.73-31.82,12.34c-10.03,3.61-19.72,7.58-38.38,8.46c6.6,12.25,13.29,24.24,13.73,25.39
	c2.29-0.26,2.82-1.32,3.34-0.88c0.53,0.44,1.14,3,2.11,3.79c0.97,0.79,9.15,10.75,11.27,15.43"></path>
<style data-made-with="vivus-instant">.YmOkTOXz_0{stroke-dasharray:4661 4663;stroke-dashoffset:4662;animation:YmOkTOXz_draw 20000ms linear 0ms forwards;}@keyframes YmOkTOXz_draw{100%{stroke-dashoffset:0;}}@keyframes YmOkTOXz_fade{0%{stroke-opacity:1;}98.83040935672514%{stroke-opacity:1;}100%{stroke-opacity:0;}}</style></svg>
