<!--?xml version="1.0" encoding="utf-8"?-->
<!-- Generator: Adobe Illustrator 23.0.1, SVG Export Plug-In . SVG Version: 6.00 Build 0)  -->
<svg version="1.1" id="Layer_1" xmlns="http://www.w3.org/2000/svg" xmlns:xlink="http://www.w3.org/1999/xlink" x="0px" y="0px" viewBox="0 0 422 414" style="" xml:space="preserve">
<style type="text/css">
	.st0{fill:none;stroke:#FDC1BA;stroke-miterlimit:10;}
</style>
<g>
	<path class="st0 Nwzxizis_0" d="M132.8,26.94l3.01,3.05l-2.88,3.16 M135.76,26.87l3.01,3.05l-2.88,3.16 M138.71,26.81l3.01,3.05l-2.88,3.16
		 M141.67,26.74l3.01,3.05l-2.88,3.16 M144.62,26.67l3.01,3.05l-2.88,3.16 M172.07,28.91l-37.31,1.38 M165.27,26.11l6.81,2.8
		l-6.74,2.95 M157.74,72.3l3.04,3.01l-2.85,3.2 M160.69,72.2l3.04,3.01l-2.85,3.2 M163.65,72.1l3.04,3.01l-2.85,3.2 M166.6,71.99
		l3.04,3.01l-2.85,3.2 M169.56,71.89l3.04,3.01l-2.85,3.2 M197.03,73.82l-37.3,1.81 M190.2,71.1l6.84,2.72l-6.7,3.03 M206.79,81.39
		c0,0-2.26,0.9-2.39-5.42s-0.57-10.99,2.09-11.17c2.65-0.18,54.23-2.17,54.23-2.17s2.73-0.55,2.87,3.39s0.18,10.36,0.18,10.36
		s0.62,1.9-2.31,2.19 M178.67,22.2c0,0,0.37,13.29,0.83,13.36s53.24-1.58,53.42-1.87c0.17-0.28-0.72-12.82-0.72-12.82L178.67,22.2z
		 M344.58,143.34c0,0,3.44,2.35,3.43,5.47s-2.45,5.04-2.45,5.04 M316.54,132.16c0,0,14.65,8.84,17.07,9.69s9.52,1.75,10.96,1.49
		c1.45-0.26,2.78-0.82,4.96-0.9c2.18-0.08,2.04,1.8,7.46-0.78c5.42-2.58,10.03-4.3,13.96-1.84s5.33,9.89,1.69,12.62
		c-3.65,2.73-6.95,3.36-10.53,2.13s-7.36-2.45-9.52-1.75s-2.89,0.62-4.44,0.88c-1.55,0.26-1.77-0.15-5.28,0.5
		c-3.51,0.64-8.22,2.57-9.99-0.27c-1.76-2.85-8.15-7.2-10.79-8.35 M254.08,3.78c0,0,3.94,0.84,4.02,9.89
		c0.07,9.05,0.07,22.99,0.07,22.99 M100.36,41.81c0,0-0.1-26.87-1.51-31.14c25.8-0.48,147.03-2.18,153.76-2.42
		c0.23,9.58,0.9,28.63,0.9,28.63 M95.48,59.23l1.53,26.37c0,0-0.48,1.94,2.54,1.84c3.02-0.11,169.17-9.16,169.17-9.16
		s1.56,0.06,1.56-1.87s-0.54-24.68-0.54-24.68s-0.42-1.5-2.53-1.47S97.27,56.88,97.27,56.88S95.39,56.66,95.48,59.23z
		 M120.45,227.88l189.27-23.12c0,0,4-2.83,3.38-6.6 M76.05,51.83c0,0,1.65,21.04,2.07,30.47s0.7,20.07,3.02,26.04
		s9.99,18.18,14.08,30.15s5.73,16.86,5.73,16.86 M74.76,45.52l212.83-6.76 M56.67,40.77c0,0,14.23,3.08,15.98,3.29
		c1.75,0.21,2.13,0.48,2.09,2.04s0.23,5.65,0.23,5.65 M285.39,44.15c0,0-136.79,4.04-168.17,5.63c-31.38,1.58-38.33,2.07-42.25,1.96
		S57.06,48,57.06,48 M66.32,39.83c0,0,12.25,2.64,14.69,2.67c2.45,0.04,143.93-4.56,143.93-4.56l49.72-1.68 M277.86,106.8
		c0,0-3.95-1.09-6.12-0.03c-2.16,1.05-0.64,2.71,1.9,5.44s11.17,15.02,16.25,31.11c5.09,16.09,7.5,29.21,8.62,36.76
		c1.12,7.54,1.01,14.89,3.01,16.04s5.39,0.3,5.39,0.3s2.8,3.08,6.18,1.74s4.51-3.95,3.92-6.74c-0.59-2.79-2.95-4.05-6.51-4.3
		l-0.31-1.82c0,0,7.59,0.1,5.39-6.79c-1.65-5.32-6.63-4.17-6.63-4.17l-0.43-1.94c0,0,6.84-0.36,5.16-6.42s-7-4.4-7-4.4l-0.67-1.69
		c0,0,6.79-1.71,4.65-6.89s-6.88-4.41-7.72-4.01l-0.4-0.96c0,0,4.99-0.66,4.86-4.33c-0.13-3.66-1.87-6.2-4.28-6.85
		c-2.41-0.65-3.85,0.13-3.85,0.13s-0.52-0.58,0.38-0.98s4.29-3.13,3.34-5.39s-2.52-3.99-4.1-4.53c-1.58-0.54-3.41-0.34-3.41-0.34
		s-0.24-0.31,1.12-0.86s2.57-3.99,0.65-6.31s-4.42-3.1-5.7-2.97c0.33-1.02,0.35-1.71,0.75-2.27c0.39-0.56,1.63-3.22-1.46-5.13
		c-3.09-1.91-4.03-1.19-4.27-1.41s2.26-3.56-0.09-5.32c-2.36-1.75-4.27-2.6-6.13-2.26c-1.87,0.34-3.02,0.11-3.6,3.29
		c-0.4,1.8-0.1,2.43,0.47,2.92C277.78,105.88,278.27,106.78,277.86,106.8z M241.39,109.91c0,0,14.07,21.28,17.35,30.95
		c3.27,9.67,7.57,27.75,8.37,36.65c0.8,8.9,2.77,19.72,3.8,21.15s2.52,2.24,5.8,1.39c2.88,1.86,5.65,4.08,9.49-1.31
		c1.62-2.5-0.1-6.36-3.45-7.71c-1.74-0.67-2.46-0.53-2.46-0.53l-0.17-1.22c0,0,6.3-1.81,5.01-7.02s-6.16-4.68-6.16-4.68l-0.19-1.83
		c0,0,6.05-1.92,4.53-7.01c-1.52-5.08-6.63-4.17-6.63-4.17l-0.68-2.06c0,0,6.57-1.09,4.16-6.99s-6.98-3.79-6.98-3.79l-0.22-1.15
		c0,0,4.7-1.94,4.35-5.04c-0.35-3.11-2.32-6.89-6.9-6.61c-0.73,0.03-1.45,0.6-1.45,0.6l-0.09-0.91c0,0,5.23-2.51,4.08-5.65
		c-1.15-3.14-2.87-5.1-6.9-5.08c1.57-2.32,3.9-5.58,0.33-8.08c-3.57-2.51-4.9-2.09-4.9-2.09s2.4-2.96,1.42-4.94
		c-0.99-1.98-3.51-4.1-5.77-4.14c0.95-2.54,1.27-5.55-2.25-6.59c-3.52-1.04-6.28-1.25-7.21,0.07c-0.93,1.32-1.69,4.1-0.94,4.62
		c0.75,0.52,1.9,1.83,1.9,1.83l-0.16,0.62c0,0-2.79-1.19-4.31-0.95C242.63,108.46,241.39,109.91,241.39,109.91z M191.98,111.72
		c0,0-8.51,0.48-5.82,4.06c2.69,3.58,7.04,7.09,11.62,20.14s8.41,27.96,10.16,38.72s3.22,24.01,3.66,25.93
		c0.43,1.91,0.3,5.86,3.98,6.37c3.69,0.51,4.04,0.04,4.04,0.04s1.02,3.08,5.67,2c4.64-1.08,3.98-6.48,3.58-7.48
		c0,0-1.79-4.33-6.29-4.36l-0.42-1.64c0,0,7.28-0.61,5.81-6.9c-1.29-5.55-6.05-5.02-6.05-5.02l-0.52-1.82c0,0,6.18-1.59,4.72-6.77
		c-1.46-5.18-5.68-5.03-6.41-4.91c-0.59-1.08-0.88-1.71-0.88-1.71s5.27-1.47,3.98-6.93c-1.29-5.46-6.68-4.63-6.68-4.63l-0.22-1
		c0,0,5.35-1.75,3.6-7.37c-1.76-5.63-7.3-4.15-7.3-4.15l-0.03-0.92c0,0,5.8-2.13,3.23-7.45c-1.79-3.97-6.1-3.92-6.1-3.92
		s2.85-2.39,2.23-4.48c-0.62-2.09-0.9-4.65-5.43-5.77c0,0,2.89-4.05,0.04-6.61c-2.84-2.56-4.94-2.4-4.94-2.4s2.28-3.02-0.09-5.23
		c-2.37-2.21-7.82-3.12-8.87-1.71C191.18,107.26,190.37,110.31,191.98,111.72z M151.71,114.23c0,0-5.78-0.07-4.57,3.28
		c1.22,3.35,8.49,17.32,10.97,25.21s7.53,26.62,9.51,38.47c1.97,11.86,2.7,24.77,4.35,27.28c1.65,2.51,6.07,3,6.07,3
		s3.13,3.01,6.42,2.62s5.52-4.78,4.98-7.15c-0.54-2.37-3.75-5.01-5.5-5.04l-0.15-1.74c0,0,4.52-1.9,3.91-6.19
		c-0.61-4.29-4.15-5.91-4.98-5.97l-0.37-2.74c0,0,4.26-1.34,3.08-6.44c-1.19-5.1-5.3-4.77-5.3-4.77l-0.25-1.92
		c0,0,4.72-1.54,3.06-7.08c-1.66-5.54-6.85-4.53-6.85-4.53l-0.12-0.91c0,0,5.46-1.38,3.87-7.47c-1.38-5.27-7.21-4.24-7.21-4.24
		l-0.34-1.73c0,0,5.85-0.66,3.43-6.91c-1.28-2.52-5.18-3.76-6.09-3.64s3.43-1.68,2.85-5.05c-0.58-3.37-3.03-5.31-6.43-5.55
		c1.37-2.71,4.07-6.84-2.89-9.16c0.07-3.4-0.21-5.96-3.28-7.22c-3.07-1.27-6.53-0.32-7.3,1.08
		C151.78,111.11,151.67,113.22,151.71,114.23z M112.75,117.88c0,0-3.23-0.44-4.09,1.15c-0.86,1.59-0.02,2.11,1.35,4.54
		c1.37,2.43,6.71,16,9.92,26.72c3.22,10.71,3.45,12.17,5.66,22.74c2.2,10.56,4.35,22.05,4.81,30.1c0.46,8.06,0.1,10.73,1.61,11.96
		c1.51,1.23,4.82,1.58,4.82,1.58s2.02,2.6,5.59,2.38c0,0,6.02-0.86,5.28-6.52c-0.69-4.1-5.81-6.13-5.81-6.13l-0.24-1.64
		c0,0,5.29-0.83,4.72-6.68c-0.45-5.12-4.96-5.51-4.96-5.51l-0.36-2.57c0,0,4.08-1.42,3.44-6.62c-0.64-5.21-5.39-4.58-5.39-4.58
		l-0.54-2.46c0,0,4.24-2.17,3.05-7.26c-1.19-5.1-6.95-4.53-6.95-4.53l-0.42-1.45c0,0,5.29-3.49,4.15-7.3s-5.13-4.96-6.95-4.71
		l0.16-0.65c0,0,3.82-1.05,3.7-4.44c-0.12-3.39-2.06-6.35-5.57-7.05c1.36-2.98,2.82-5.97,0.82-8.01s-3.03-2.83-4.87-2.95
		c1.56-2.71,2.29-5.31,0.76-7.18s-4.76-2.4-4.76-2.4s1.43-1.15,1.45-3.26s-2.67-5.59-7.42-4.97s-3.81,3.89-3.78,4.63
		S112.75,117.88,112.75,117.88z M45.06,115.57c0,0,2.23-1.76,8.72-1.68s11.73-0.29,13.8-0.67s6.64-0.69,6.64-0.69 M63.63,173.54
		c0.4-0.75,2.1-11.75,2.1-11.75c0.43-5.15,3.39-4.4,3.39-4.4s18.34-1.38,27.08-1.99 M65.48,154.82c0,0-10.41-0.37-9.96,1.94
		s6.66,15.67,6.66,15.67s1.11,2.1,3.8,1.95c5.13-0.3,37.49-3.51,37.49-3.51s1.47,0.07,2.08-3.38c0.61-3.45,4.4-10.55,3.15-11.48
		c-1.26-0.93-7.98-0.76-12.5-0.6c0,0-1.72-1.96-3.06-1.97C91.79,153.41,68.96,154.64,65.48,154.82z M49.77,113.75
		c0,0,6.67,4.35,9.43,12.61c2.76,8.25,6.99,21.41,7.17,26.63 M59.78,113.95c0,0,6.54,3.53,8.87,9.78s8.13,20.08,5.61,24.02
		s-3.14,4.6-6.69,5.37c-3.55,0.77-4.47-1.77-4.47-1.77s-2.27-4.6-3.13,2.22c-0.46,0.07-0.86,0.13-1.19,0.19
		c-0.85,0.15-1.27,0.26-1.27,0.26s-9.22-11.88-12.44-38.46c0,0-1.41-3.71,0.59-4.15s26-1.55,26-1.55s2.44-1,2.57,2.66
		c3.87,0.42,6.68-0.42,10.77,6.32s10.22,22.03,10.94,26.86c0.72,4.84-1.33,5.61-5.17,2.6c-8.07-6.35-9.01-19.9-14.59-27.23
		c-5.58-7.33-6.72-8.57-9.34-7.29 M104.58,170.09c0,0,16.24,42,17.31,72.78c1.07,30.79-3.19,40.11-7.25,44.65
		c0,0,15.75,16.57,18.13,18.33c2.38,1.75,7.75,1.32,25.51-1.5s106.04-17.65,114.44-18.8s79.54-13.05,83.4-12.7 M58.64,77.88
		l7.45-0.26c0,0,4.05,0.41,6.88,8.02c0,0,2.87,8.64,4.47,15.8s2.24,11.73,2.24,11.73 M19.86,79.42c0,0,1.75-2.32,4.64,6.75
		s5.48,22.13,7.38,30.87c1.89,8.74,2.21,19.61,7.31,28.85c5.09,9.24,12.33,23.85,15.22,32.98c2.89,9.13,7.63,27.56,9.41,38.26
		c1.78,10.7,6.18,42.23,4.61,56.71c-1.57,14.49-3.88,18.6-7.85,20.33 M134.89,307c0,0-1.08,5.79-1.99,6.86 M327.36,255.61
		c0,0,16.17,8.7,21.59,11.54c5.42,2.84,6.84,4.07,7.17,5.71c0.53,4.75-0.31,4.23-2.12,4.84s-53.06,9.47-56.62,10.05
		s-47.79,7.91-57.55,9.53s-61.66,10.23-80.63,13.37c-18.97,3.14-24.19,3.41-26.31,3.21s-18.01-19.19-18.97-20.35
		s-0.75-5.75-0.75-5.75 M400.6,282.77l-0.23,43.31 M57.98,340.88l4.79,47.72 M78.17,338.61l4.06,50.5 M12.29,295.32
		c0,0-4.3-0.46-4.04,1.55c0.25,2.01,0.73,10.31,1,11.04c0.27,0.72,4.87,9.98,7.28,14.18c2.41,4.2,44.23,82.64,44.92,84.17
		c0.7,1.54,1.84,5.35,7.67,4.14S208.3,381.28,219,379.19c0,0,76.99-15.92,99.58-20.62c22.59-4.7,49.55-10.05,59.28-11.85
		c9.72-1.81,35.57-7.6,36.66-8.01c1.09-0.4,1.62-0.85,1.52-3.66s0.39-9.86-0.01-10.7c-0.4-0.84-4.7-3.32-4.7-3.32 M10.17,264.39
		l2.79,36.23c0,0,51.4,92.02,52.14,91.99c0.73-0.02,343.66-67.84,346.18-69.21c-0.06-1.65,0.12-42.66,0.12-42.66 M23.73,167.47
		c0,0-17.92,1.67-18.35,1.68c-0.43,0.01-1.79,1.28-1.21,5.67c0.58,4.38,1.07,6.08,2.96,5.83s17.37-1.77,18.52-1.99
		C26.41,175.16,25.26,169.25,23.73,167.47z M327.09,225.62c0,0,88.57,42.04,89.14,42.66c0.57,0.62-0.3,0.65,0.12,2.06
		c0.42,1.41,1.88,7.78,0.63,8.74s-2.89,1.2-5.58,1.66s-180.26,32.81-221.5,39.38S67.23,340.65,62.25,341.1
		c-3.06,0.24-2.98,1.34-5.62-2.05c-2.64-3.39-42.15-66.92-46.46-74.66c-3.3-5.2-5.01-8.08-5.02-8.31c-0.01-0.23-0.7-5.57-0.85-7.36
		c-0.15-1.78-0.79-2.91,1.58-3.36s17.9-2.28,17.9-2.28 M18.06,168.22c0,0-0.44-5.68-0.62-5.72c-1.02-0.23-4.86,0.08-5.68-1.04
		s-2.81-2.98-2.99-12.1c-0.02-4.63,0.94-5.81,2.35-6.32c1.4-0.51,4.92-1,4.76-1.59s-0.42-5.31-0.42-5.31s-6.1-15.69-1.6-30.4
		c-0.41-8.3-0.54-25.91,6.77-26.78c5.87-0.08,38-1.08,38-1.08L57.06,48c0,0-0.79-0.39-1.3-0.51s-1.05,0.04-0.98-3.08
		s0.14-3.86,2.75-4.04s8.79-0.54,8.79-0.54s-1.6-18.15-1.54-27.1c0,0-1.12-7.12,4.35-6.62c5.48,0.5,18.03,0.15,22.34,0.14
		c4.31-0.01,47.44-1.01,85.03-1.59s83.44-1.08,86.92-1.2c3.48-0.12,10.95-1.67,11.03,11.17s0.2,21.64,0.2,21.64s9.13,0.6,10.43,0.8
		c1.29,0.2,2.72,0.82,2.82,3.76c0.1,2.93,0.18,3.54,0.18,3.54l-2.7-0.21c0,0,0.53,23.95,0.63,28.6c0.1,4.64-0.47,16.41,3.02,21.67
		s5.58,7.57,10.14,11.82c4.55,4.24,16.14,19.99,21.35,35.21c5.21,15.23,6.03,20.25,7.43,29c1.41,8.76,2.67,21.37,2.08,27.91
		c-0.6,6.53-0.28,5.06-1.71,6.11c-1.43,1.06-1.6,6.75-1.35,16.38c0.24,9.62,0.39,34.75,0.39,34.75s-0.58-0.71-1.86-0.67
		c-1.28,0.04-208.03,32.13-210.86,32.59c-2.83,0.47-8.32,0.66-8.32,0.66s-44.45,6.32-45.75,6s-3.4-0.25-5.33-2.93
		s-31.03-45.33-31.16-46.34c-0.13-1-5.4-65.4-5.4-65.4"></path>
</g>
<style data-made-with="vivus-instant">.Nwzxizis_0{stroke-dasharray:7987 7989;stroke-dashoffset:7988;animation:Nwzxizis_draw 20000ms ease 0ms forwards;}@keyframes Nwzxizis_draw{100%{stroke-dashoffset:0;}}@keyframes Nwzxizis_fade{0%{stroke-opacity:1;}98.83040935672514%{stroke-opacity:1;}100%{stroke-opacity:0;}}</style></svg>
