<!--?xml version="1.0" encoding="utf-8"?-->
<!-- Generator: Adobe Illustrator 23.0.1, SVG Export Plug-In . SVG Version: 6.00 Build 0)  -->
<svg version="1.1" id="Layer_1" xmlns="http://www.w3.org/2000/svg" xmlns:xlink="http://www.w3.org/1999/xlink" x="0px" y="0px" viewBox="0 0 444 448" style="" xml:space="preserve">
<style type="text/css">
	.st0{fill:none;stroke:#FDC1BA;stroke-miterlimit:10;}
</style>
<g>
	<path class="st0 PQHsaMiO_0" d="M203.12,97.82l84.91,138.66 M195.92,104.81l82.51,138.66 M180.91,119.55l76.56,140.24 M167.16,133.8
		l69.41,142.48 M153.24,146.08c0,0,62.21,139.86,64.5,144.44 M140.91,158.53l58.94,145.64 M127.38,171.85l54.57,145.64
		 M114.28,183.42l50.75,147.06 M103.37,193.68l46.03,148.67 M91.69,204.38l40.93,150.67 M79.79,215.3c0,0,36.67,145.86,37.76,150.88
		 M70.82,220.68c0,0,2.65-2.1,3.41-3.63s-0.14-2.76,2.16-3.49c2.29-0.74,3.19-1.64,4.01-3.52s1.8-2.21,3.52-2.78
		c1.72-0.57,0.82-2.05,3.36-3.93c2.54-1.88,3.93-1.96,4.34-3.6s0.74-2.95,2.37-3.28c1.64-0.33,3.03-1.23,3.44-2.62
		s0.41-2.38,2.05-3.03s3.11-0.98,4.01-3.44s1.72-2.29,2.86-2.62c1.15-0.33,2.29-1.06,2.62-2.46c0.33-1.39,1.06-2.78,3.27-3.6
		s2.29-2.37,3.03-3.85c0.74-1.47,1.88-1.47,3.85-2.54c1.96-1.06,1.15-3.19,3.27-4.42c2.13-1.23,4.58-1.8,4.99-3.68
		c0.41-1.88,0.98-3.11,2.95-3.6c1.96-0.49,2.7-1.06,3.44-3.36c0.74-2.29,1.8-2.54,3.27-2.87s3.44-1.88,3.68-3.6
		c0.25-1.72,0.98-2.13,2.29-2.62c1.31-0.49,2.62-0.74,3.27-3.11c0.66-2.37,1.15-2.54,2.78-3.11c1.64-0.57,3.52-1.39,3.77-2.95
		s1.64-2.54,4.09-3.52c2.46-0.98,1.8-1.56,2.37-3.28c0.57-1.72,0.66-2.7,2.37-3.11c1.72-0.41,3.85-0.24,4.34-2.21
		c0.49-1.96,1.15-3.77,2.95-4.26c1.8-0.49,3.52-0.41,4.09-2.37c0.57-1.97-0.16-3.11,2.05-3.77c2.21-0.65,4.18-1.56,4.58-3.19
		c0.41-1.64,0.82-2.95,3.19-3.68c2.37-0.74,2.78-0.98,3.6-3.28c0.82-2.29,0.98-2.7,2.7-3.36s3.68-1.39,4.26-3.11
		c0.57-1.72,0.82-3.52,4.01-4.34c3.19-0.82,3.44-1.88,3.93-3.52c0.49-1.64,2.7-3.28,4.67-3.19 M18.35,269.56
		c0,0,73.23-76.97,95.93-98.59S222.55,67.69,234.77,57.21C247,46.73,289.08,8.19,289.08,8.19 M26.12,270.95
		c0,0,19.07,144.87,19.73,149.46 M93.9,384.28c0,0-19.24-94.08-22.29-110.02c-3.06-15.94-9.44-45.42-9.14-46.62
		c0,0,2.95-6.55,8.35-6.96c2.62,10.07,12.77,56.58,15.72,70.42c2.95,13.84,10.48,49.13,12.69,56.99s6.14,27.27,6.14,27.27
		 M17.55,262.33c0,0-0.1,6.24,0.8,7.23c0.9,0.98,4.18,1.47,7.78,1.39c9.58-9.25,37.33-37.26,37.33-37.26 M22.98,443.54
		c0,0,2.78-1.69,7.26-3.33 M11.47,261.11c0,0,2.73,36.84,7.31,79.75s10.15,92.8,11.46,99.35c5.68,0.11,9.39,0.08,9.39,0.08
		s103.57-76.72,115.47-86c11.9-9.28,246-185.28,259.1-193.46c13.1-8.19,18.42-12.04,23.78-14.21 M310.2,219.28
		c0,0-102.44,79.43-131.09,100.88s-142.1,107.1-142.1,107.1s0.33,9.66,0.82,10.81c0.49,1.15,1.31,2.46,4.75,2.95
		c3.44,0.49,15.25,0.33,15.25,0.33 M223.8,91.81l-6.17-8.84c0,0-4.37-2.29-8.4,0.76c-4.04,3.06-3.82,5.24-1.53,8.63
		c2.29,3.38,49.22,78.61,57.3,90.62c8.08,12.01,31.54,47.17,31.54,47.17 M223.8,91.81c0,0,11.05-10.3,14.32-13.2
		c0,0,30.98-28,34.13-31.12c3.15-3.11,13.1-13.18,14.73-14.37c1.64-1.19,5.03-4.34,5.73-5.12c0.7-0.78,4.05-5.53,3.89-7.29
		c-0.16-1.76-1.43-3.32-3.23-5.81c-1.8-2.5-3.68-6.02-4.3-6.71c-0.61-0.7-1.72-1.8-2.87-2.83c-1.15-1.02-2.66-2.21-2.86-2.33
		c-0.2-0.12-1.1-0.82-2.13,0.33c-1.02,1.15-4.62,4.18-5.94,5.49c-1.31,1.31-1.35,1.39-1.84,1.84s-1.02,1.23-1.02,1.23l-1.43,1.11
		c0,0-2.33,2.09-2.7,2.5c-0.37,0.41-20.38,19.16-25.66,24.24s-21.28,20.35-24.35,23.3s-14.32,13.76-17.11,16.46
		c-2.78,2.7-18.17,17.65-21.69,21.04c-3.52,3.4-31.23,30.22-37.29,36.27c-6.06,6.06-48.13,47.41-53.86,52.98
		c-5.73,5.57-33.72,34.47-39.37,40.12s-19.59,20.09-19.59,20.09l-11.82,12.32c0,0-5.67-1.13-6.08-1.23s-2.29-0.78-3.76,0.72
		c-1.47,1.49-2.56,2.42-2.52,6.72s1.64,23.68,1.97,27.55c0.33,3.88,1.69,22.27,2.4,28.6c0.71,6.33,2.4,26.2,3.06,31.66
		s5.02,53.06,5.68,58.68s2.13,19.6,2.89,23.36c0.76,3.77,0.55,3.99,1.8,5.13c1.25,1.15,1.36,1.09,3.44,1.26
		c2.07,0.16,5.92,0.45,6.74,0.37c0.82-0.08,1.47-0.08,1.47-0.08s0.9-0.12,1.76-0.04c0.86,0.08,1.35,0.2,2.09,0.2
		s3.44-0.12,4.13,0.04c0.7,0.16,1.23,0.16,2.17,0.08c0.94-0.08,1.88-0.24,1.88-0.24s3.93,0.65,7.16-0.9s4.09-2.91,4.67-3.36
		c0.57-0.45,2.25-2.99,5.69-5.32c3.44-2.33,4.34-3.15,5.52-3.85c1.19-0.7,8.19-5.65,8.47-6.06c0.29-0.41-0.04-0.7,0.65-0.94
		c0.7-0.24,3.03-1.56,5.94-3.68c2.91-2.13,16.9-12.49,20.18-14.62c3.27-2.13,19.81-14.08,22.88-16.34
		c3.07-2.25,22.1-15.76,24.97-17.69c2.87-1.92,18.7-13.59,21.94-15.93c3.23-2.33,21.16-15.03,23.25-16.62
		c2.09-1.6,28.2-20.63,34.17-24.97c5.98-4.34,64.61-47.36,70.72-51.72c6.11-4.37,72.85-55.13,80.55-60.7
		c7.69-5.57,19.65-14.33,20.63-15.23s2.05-2.54,7.61-6.47c5.57-3.93,17.35-13.67,21.12-16.62s7.28-6.06,7.78-6.96
		c0.49-0.9,1.47-4.34,0.08-5.9s-1.68-2.99-2.66-4.63s-4.67-5.85-7.24-8.56c-2.58-2.7-4.09-4.05-4.62-4.46s-1.51-0.45-2.82,0.37
		c-1.31,0.82-3.11,1.56-4.17,2.17c-1.06,0.61-3.23,2.25-4.79,3.48s-10.35,7.74-11.91,8.8c-1.55,1.06-2.78,1.96-4.38,3.03
		c-1.6,1.06-2.95,2.13-4.26,3.23c-1.31,1.11-6.06,4.95-8.43,6.84c-2.37,1.88-4.54,3.52-5.81,4.54c-1.27,1.02-4.42,3.15-4.95,3.85
		s-1.1,1.02-2.25,1.72s-6.79,4.99-8.1,5.94c-1.31,0.94-2,1.68-2.91,2.37c-0.9,0.7-1.19,1.35-1.76,1.8s-1.68,1.19-1.68,1.19
		s-3.4,2.29-5.28,3.93s-13.14,10.24-14.73,11.5c-1.6,1.27-12.11,9.09-16.41,12.24c-4.3,3.15-11.26,8.68-11.26,8.68
		s-1.39-2.05-2.82-3.85s-4.18-6.39-5.57-8.6s-5.73-7.37-7.61-10.69c-1.88-3.32-7.98-12.32-10.8-16.7
		c-2.82-4.38-12.56-19-15.27-23.13c-2.7-4.14-11.17-16.13-14.57-21.45c-3.4-5.32-10.35-15.48-13.79-20.31
		C236.33,109.72,224.46,92.57,223.8,91.81z"></path>
</g>
<style data-made-with="vivus-instant">.PQHsaMiO_0{stroke-dasharray:5656 5658;stroke-dashoffset:5657;animation:PQHsaMiO_draw 10000ms ease 0ms forwards;}@keyframes PQHsaMiO_draw{100%{stroke-dashoffset:0;}}@keyframes PQHsaMiO_fade{0%{stroke-opacity:1;}97.1830985915493%{stroke-opacity:1;}100%{stroke-opacity:0;}}</style></svg>
