<svg version="1.1" id="Layer_1" xmlns="http://www.w3.org/2000/svg" xmlns:xlink="http://www.w3.org/1999/xlink" x="0px" y="0px"
     viewBox="0 0 85 30" style="enable-background:new 0 0 85 30;" xml:space="preserve">
    <path style="fill: #FFFFFF;" d="M44.48,18.39c-0.25,0-0.51-0.02-0.79-0.03C43.96,18.37,44.23,18.39,44.48,18.39c0.87,0.02,1.55-0.04,2.09-0.16
		C46.03,18.35,45.34,18.41,44.48,18.39 M73.34,7.47c9.03-3.4,8.71-5.71,8.71-5.71s-9.03,5.17-20.83,1.37
		C54.86,1.08,49.48,0.34,45.6,2.24c-3.48,1.71-1.51,4.29-6.56,3.19l1.45,12.55c0.02,0,0.04,0.01,0.06,0.01
		c0.29,0.05,0.57,0.09,0.84,0.13c0,0,0,0,0.01,0c0.86,0.12,1.62,0.2,2.28,0.24c-0.66-0.04-1.42-0.12-2.28-0.24
		c5.24,0.74,6.52-0.1,7.27-1.26c-0.37,0.56-0.86,1.05-1.87,1.32c1.38-0.37,1.79-1.14,2.24-1.96c0.02-0.03,0.03-0.05,0.04-0.08
		c0.01-0.01,0.02-0.03,0.02-0.04c0.02-0.04,0.04-0.07,0.06-0.11c0,0,0-0.01,0.01-0.01c0.02-0.04,0.05-0.08,0.07-0.12c0,0,0,0,0,0
		c0,0,0,0,0,0c0.31-0.53,0.7-1.05,1.44-1.47c3.67-2.19,15.78,1.58,23.97-0.64c9.07-3,10.32-6.04,10.32-6.04s-0.54,1.59-8.07,2.69
		c-4.5,0.66-7.33-0.38-7.31-1.01C69.62,8.7,72.38,7.83,73.34,7.47"/>
    <path style="fill:#0080C4;" d="M40.49,17.98L39.04,5.43c-1.17-0.26-2.72-0.71-4.8-1.42c-3.26-1.11-13.6-5.27-17.49-3.63
		C12.86,2.02,15.97,5.84,3.6,8.28C2.54,8.49,1.32,8.72,0,8.96V30c2.29-1.23,4.33-2.23,5.91-2.86c11.88-4.71,10.02-9.1,13.31-10.71
		c3.29-1.6,11.97-0.47,14.57,0.15C36.98,17.36,40.8,18.03,40.49,17.98"/>
    <path style="fill:#EB5B4B;" d="M82.56,1.14c0,0-9.54,5.79-21.34,1.99C54.86,1.08,49.48,0.34,45.6,2.24c-3.48,1.71-1.51,4.29-6.56,3.19
		l0.46,4.01c1.4,0.75,4.27,1.17,5.44-0.52c1.77-2.58,2.18-3.94,7.02-4.06c4.84-0.12,14.57,5.95,26.33,0.91
		C82.65,3.5,82.56,1.14,82.56,1.14"/>
    <path style="fill:#00836E;" d="M45.06,18.39c-0.17,0-0.35,0.01-0.54,0C44.7,18.39,44.88,18.39,45.06,18.39"/>
    <path style="fill:#00836E;" d="M46.12,18.31c-0.14,0.02-0.29,0.04-0.44,0.05C45.83,18.34,45.98,18.33,46.12,18.31"/>
    <polyline style="fill:#00836E;" points="47.98,17.62 47.97,17.63 47.98,17.62 	"/>
    <polyline style="fill:#00836E;" points="48.18,17.45 48.18,17.45 48.18,17.45 	"/>
    <path style="fill:#00836E;" d="M46.56,18.23c-0.12,0.03-0.26,0.05-0.4,0.07C46.3,18.28,46.43,18.26,46.56,18.23"/>
    <path style="fill:#00836E;" d="M47.74,17.78c0,0-0.01,0.01-0.01,0.01C47.73,17.79,47.74,17.78,47.74,17.78"/>
    <path style="fill:#00836E;" d="M46.57,18.23c0,0-0.01,0-0.01,0C46.56,18.23,46.57,18.23,46.57,18.23"/>
    <path style="fill:#00836E;" d="M47.16,18.06c-0.01,0-0.02,0.01-0.03,0.01C47.15,18.06,47.16,18.06,47.16,18.06"/>
    <path style="fill:#00836E;" d="M45.62,18.36c-0.15,0.01-0.32,0.02-0.49,0.03C45.3,18.38,45.46,18.37,45.62,18.36"/>
    <path style="fill:#00836E;" d="M45.06,18.39L45.06,18.39c0.02,0,0.05,0,0.07,0c0,0,0,0,0,0C45.1,18.39,45.08,18.39,45.06,18.39"/>
    <path style="fill:#00836E;" d="M46.12,18.31L46.12,18.31c0.02,0,0.03,0,0.04-0.01l0,0C46.14,18.3,46.13,18.31,46.12,18.31"/>
    <path style="fill:#00836E;" d="M43.68,18.36c-0.01,0-0.03,0-0.04,0C43.65,18.35,43.67,18.36,43.68,18.36"/>
    <path style="fill:#00836E;" d="M47.45,17.94c0.01,0,0.01,0,0.01-0.01C47.47,17.93,47.46,17.93,47.45,17.94
		C47.46,17.93,47.46,17.94,47.45,17.94"/>
    <path style="fill:#00836E;" d="M48.51,17.08c0.01-0.02,0.03-0.04,0.04-0.05C48.53,17.04,48.52,17.06,48.51,17.08 M48.33,17.29
		c0.01-0.01,0.03-0.03,0.04-0.04C48.36,17.26,48.35,17.28,48.33,17.29 M41.96,18.19c0.06,0.01,0.11,0.01,0.16,0.02
		C42.07,18.2,42.02,18.2,41.96,18.19 M50.74,9.72c-4.17,1.56-3.61,3.45-5.62,4.19c-1.06,0.39-3.77,0.06-5.14-0.28l0.5,4.34
		c0.02,0,0.04,0.01,0.06,0.01c0.29,0.05,0.57,0.09,0.84,0.13c0,0,0,0,0.01,0h0c0.19,0.03,0.38,0.05,0.57,0.08
		c0.06,0.01,0.11,0.01,0.16,0.02c0.13,0.02,0.26,0.03,0.38,0.04c-0.12-0.01-0.25-0.03-0.38-0.04c0.13,0.02,0.26,0.03,0.38,0.04
		c0.05,0.01,0.11,0.01,0.16,0.02c0.15,0.02,0.3,0.03,0.45,0.04c0.02,0,0.03,0,0.05,0c0.16,0.01,0.31,0.02,0.46,0.03
		c0.31,0.02,0.6,0.03,0.88,0.04c0.19,0,0.37,0,0.55,0c0.02,0,0.05,0,0.07,0c0.17-0.01,0.34-0.01,0.49-0.03c0.02,0,0.04,0,0.06,0
		c0.16-0.01,0.3-0.03,0.44-0.05c0.01,0,0.03,0,0.04-0.01c0.14-0.02,0.27-0.04,0.4-0.07c0.09-0.02,0.17-0.04,0.26-0.06
		c-0.01,0-0.01,0-0.02,0.01c0.01,0,0.02-0.01,0.03-0.01c0.07-0.02,0.13-0.04,0.2-0.06c0.01,0,0.02-0.01,0.04-0.01
		c0.03-0.01,0.06-0.02,0.09-0.03c-0.01,0-0.02,0.01-0.03,0.01c0.03-0.01,0.05-0.02,0.08-0.03c-0.01,0-0.02,0.01-0.03,0.01
		c0.1-0.04,0.2-0.08,0.29-0.12c-0.01,0-0.01,0-0.02,0.01c0.01,0,0.02-0.01,0.03-0.01c0,0,0.01,0,0.01-0.01c0,0,0,0-0.01,0
		c0.01,0,0.02-0.01,0.02-0.01c0.06-0.03,0.11-0.06,0.16-0.08c0.01,0,0.01-0.01,0.02-0.01c0.02-0.01,0.04-0.02,0.06-0.04
		c-0.01,0-0.02,0.01-0.02,0.01c0.02-0.01,0.04-0.03,0.06-0.04c-0.01,0.01-0.02,0.01-0.03,0.02c0.08-0.05,0.16-0.1,0.23-0.16
		c-0.01,0.01-0.02,0.01-0.03,0.02c0.01-0.01,0.03-0.02,0.04-0.03c0,0,0,0-0.01,0c0,0,0.01-0.01,0.01-0.01
		c0.01,0,0.01-0.01,0.02-0.01c0.05-0.04,0.09-0.07,0.13-0.11c0,0,0,0,0.01-0.01c0.01-0.01,0.03-0.03,0.04-0.04
		c-0.01,0.01-0.01,0.01-0.02,0.02c0.02-0.02,0.03-0.03,0.05-0.05c-0.01,0.01-0.02,0.02-0.03,0.03c0.07-0.07,0.14-0.14,0.2-0.21
		c0,0,0.01-0.01,0.01-0.01c0.03-0.04,0.07-0.08,0.1-0.12c0,0,0-0.01,0.01-0.01c0.06-0.08,0.12-0.16,0.17-0.24
		c-0.01,0.01-0.02,0.02-0.02,0.03c0.14-0.22,0.27-0.44,0.39-0.67c0.02-0.03,0.03-0.05,0.04-0.08c0.01-0.01,0.02-0.03,0.02-0.04
		c0.02-0.04,0.04-0.07,0.06-0.11c0,0,0.01-0.01,0.01-0.01c0.02-0.04,0.05-0.08,0.07-0.12c0,0,0,0,0,0c0,0,0,0,0,0
		c0.31-0.53,0.7-1.05,1.44-1.47c3.67-2.19,15.78,1.58,23.97-0.64c11.38-3.11,10.32-6.04,10.32-6.04S82.5,8.98,73.28,10.6
		C67.29,11.65,55.54,7.93,50.74,9.72"/>
    <path style="fill:#00836E;" d="M45.62,18.36L45.62,18.36c0.02,0,0.04,0,0.06,0c0,0,0,0,0,0C45.65,18.36,45.64,18.36,45.62,18.36"/>
    <path style="fill:#00836E;" d="M43.12,18.31L43.12,18.31c0.02,0,0.03,0,0.05,0l0,0C43.16,18.32,43.14,18.32,43.12,18.31"/>
    <path style="fill:#00836E;" d="M43.12,18.31c-0.14-0.01-0.29-0.03-0.45-0.04C42.83,18.29,42.98,18.3,43.12,18.31"/>
    <path style="fill:#00836E;" d="M43.64,18.35c-0.15-0.01-0.3-0.02-0.46-0.03C43.33,18.33,43.49,18.34,43.64,18.35"/>
    <path style="fill:#00836E;" d="M42.52,18.26C42.51,18.26,42.51,18.26,42.52,18.26c0.05,0.01,0.11,0.01,0.16,0.02c0,0,0,0,0,0
		C42.62,18.27,42.57,18.26,42.52,18.26"/>
    <path style="fill: #FFFFFF;" d="M40.32,16.5c-1.05-0.19-3.85-0.85-6.39-2.6c-2.34-1.63-6.79-3.9-8.98-5c3.43,0.76,7.61,2.22,9.95,3.06
		c2.05,0.73,3.82,1.12,5.04,1.33l-0.37-3.22c-3.05-0.77-9.75-2.49-14-3.75c0.79-0.05,3.14-0.68,5.31-0.37
		c3.59,0.52,6.93,0.6,8.28,0.62l-0.13-1.15c-1.17-0.26-2.72-0.71-4.8-1.42c-0.04-0.01-0.08-0.03-0.12-0.04
		c-1.47-0.04-3.37-0.2-5.77-0.59c-1.75-0.28-5.6,0.01-6.43,0.06l-0.39-3.22c-1.92-0.3-3.63-0.32-4.78,0.16
		c-0.19,0.08-0.35,0.16-0.51,0.25l0.43,4.41c0,0-3.63,3.32-7.17,3.78c-1.81,0.24-4.2-0.11-6.1-0.5C2.38,8.52,1.24,8.73,0,8.96v2.36
		c1.57,0.52,3.69,1.07,5.87,1.2c2.4,0.14,4.92-0.69,6.46-1.13c-1.4,0.98-3.56,2.38-6.02,3.62c-2.4,1.21-4.62,1.47-6.31,1.4v4.93
		c5.78-1.22,12.09-6.04,12.24-6.14c-1.48,2.04-2.56,4.27-4.07,6C6.41,23.2,3.07,24.99,0,26.33V30c2.29-1.23,4.33-2.23,5.91-2.86
		c0.63-0.25,1.21-0.5,1.76-0.75c1.41-1.32,2.98-2.95,4.21-4.65c1.98-2.73,4.31-8.17,5.73-10.43c0.2,1.9,0.41,3.92,0.59,5.83
		c0.28-0.28,0.61-0.51,1.01-0.71c0.91-0.44,2.24-0.68,3.74-0.77l-0.56-5.4l7.79,5.72c1.54,0.19,2.84,0.42,3.61,0.6
		c2.95,0.71,6.44,1.34,6.7,1.39L40.32,16.5z"/>
    <path style="fill:#EB5B4B;" d="M23.53,6.26c0.16-0.01,2.54-1.04,5.4-1.2c3.1-0.18,6.8,0.81,9.57,0.24c-0.83-0.2-1.83-0.49-3.04-0.89
		c-2.44-0.13-7.15-0.46-7.88-0.46c-1.44,0-4.43,0.35-5.22,0.4l-0.39,0.02l-0.84,0.05l-0.64-4.35c-1.39-0.14-2.61-0.1-3.53,0.22
		l0.65,5.13l-0.35,0.32c-0.16,0.14-3.88,3.52-7.66,4.01C9.18,9.82,8.7,9.85,8.18,9.85c-1.17,0-4.63-0.72-6.72-1.15
		C0.99,8.78,0.51,8.87,0,8.96v1.83c1.69,0.35,4.41,0.69,5.92,0.78c0.3,0.02,0.61,0.03,0.92,0.03c1.6,0,6.3-1.28,7.95-1.74
		c0,0-5.28,4.6-8.08,6c-1.71,0.86-4.68,1.38-6.7,1.5v2.99c4.67-1.48,13.39-6.71,13.39-6.71c-0.58,0.8-1.54,3.77-2.05,4.6
		c-0.76,1.23-1.55,2.5-2.5,3.58C7.52,23.34,3.51,25.68,0,27.38V30c2.29-1.23,4.33-2.23,5.91-2.86c0.06-0.02,0.12-0.05,0.18-0.07
		c2.05-2.27,4.49-5.09,5.07-5.89c1.14-1.57,2.43-4.14,3.58-6.41c0.78-1.55,1.52-3.02,2.11-3.96l1.38-2.21c0,0,0.66,5.47,0.93,7.87
		c0.02-0.01,0.04-0.02,0.05-0.03c0.74-0.36,1.76-0.58,2.92-0.7l-0.95-7.28l11.26,7.87c0.54,0.09,1,0.19,1.35,0.27
		c2.02,0.49,4.3,0.93,5.61,1.18c-1.61-0.77-5.25-2.59-5.97-3.09c-2.34-1.63-10.87-6.81-10.87-6.81c3.6,0.79,10.55,2.44,12.64,3.19
		c1.14,0.4,3.31,0.98,4.64,1.31l-0.17-1.46C35.66,9.86,23.53,6.26,23.53,6.26"/>
    <path style="fill: #FFFFFF;" d="M40.49,17.98L40.49,17.98C40.51,17.98,40.51,17.98,40.49,17.98"/>
    <path style="fill:#EB5B4B;" d="M40.49,17.98L40.49,17.98C40.51,17.98,40.51,17.98,40.49,17.98"/>
</svg>
