{"accessors" : [{"bufferView" : 0, "byteOffset" : 0, "componentType" : 5123, "count" : 45822, "type" : "SCALAR", "max" : [39206], "min" : [0]}, {"bufferView" : 1, "byteOffset" : 0, "componentType" : 5126, "count" : 39207, "type" : "VEC3", "max" : [103.39994049072266, 148.7080078125, 200.39999389648438], "min" : [-103.39994049072266, -0.41019898653030396, -200.39999389648438], "name" : "POSITION"}], "asset" : {"generator" : "Aspose.3D 22.7", "version" : "2.0"}, "buffers" : [{"uri" : "data:application/octet-stream;base64,", "byteLength" : 641516}], "bufferViews" : [{"buffer" : 0, "byteOffset" : 0, "byteLength" : 91644, "target" : 34963}, {"buffer" : 0, "byteOffset" : 91648, "byteLength" : 549864, "byteStride" : 12, "target" : 34962}], "meshes" : [{"primitives" : [{"attributes" : {"POSITION" : 1}, "indices" : 0, "mode" : 4}], "name" : ""}], "nodes" : [{"mesh" : 0, "name" : "array"}], "scene" : 0, "scenes" : [{"nodes" : [0]}]}