{
  "asset": {
    "version": "2.0",
    "generator": "THREE.GLTFExporter"
  },
  "scenes": [
    {
      "name": "Scene",
      "nodes": [
        9
      ]
    }
  ],
  "scene": 0,
  "nodes": [
    {
      "name": "6",
      "extras": {
        "name": "6"
      },
      "mesh": 0
    },
    {
      "name": "5",
      "extras": {
        "name": "5"
      },
      "mesh": 1
    },
    {
      "name": "4",
      "extras": {
        "name": "4"
      },
      "mesh": 2
    },
    {
      "name": "3",
      "extras": {
        "name": "3"
      },
      "mesh": 3
    },
    {
      "name": "2",
      "extras": {
        "name": "2"
      },
      "mesh": 4
    },
    {
      "name": "1",
      "extras": {
        "name": "1"
      },
      "mesh": 5
    },
    {
      "name": "Group",
      "children": [
        0,
        1,
        2,
        3,
        4,
        5
      ]
    },
    {
      "name": "haz_frame",
      "extras": {
        "name": "haz_frame"
      },
      "mesh": 6
    },
    {
      "matrix": [
        1,
        0,
        0,
        0,
        0,
        1,
        0,
        0,
        0,
        0,
        1,
        0,
        2.0066416970080354,
        0,
        0,
        1
      ],
      "name": "haz_falak",
      "extras": {
        "name": "haz_falak"
      },
      "mesh": 7
    },
    {
      "name": "hazModell_USAobj",
      "extras": {
        "name": "hazModell_USA.obj"
      },
      "children": [
        6,
        7,
        8
      ]
    }
  ],
  "bufferViews": [
    {
      "buffer": 0,
      "byteOffset": 0,
      "byteLength": 8064,
      "target": 34962,
      "byteStride": 12
    },
    {
      "buffer": 0,
      "byteOffset": 8064,
      "byteLength": 8064,
      "target": 34962,
      "byteStride": 12
    },
    {
      "buffer": 0,
      "byteOffset": 16128,
      "byteLength": 8064,
      "target": 34962,
      "byteStride": 12
    },
    {
      "buffer": 0,
      "byteOffset": 24192,
      "byteLength": 8064,
      "target": 34962,
      "byteStride": 12
    },
    {
      "buffer": 0,
      "byteOffset": 32256,
      "byteLength": 8064,
      "target": 34962,
      "byteStride": 12
    },
    {
      "buffer": 0,
      "byteOffset": 40320,
      "byteLength": 8064,
      "target": 34962,
      "byteStride": 12
    },
    {
      "buffer": 0,
      "byteOffset": 48384,
      "byteLength": 8064,
      "target": 34962,
      "byteStride": 12
    },
    {
      "buffer": 0,
      "byteOffset": 56448,
      "byteLength": 8064,
      "target": 34962,
      "byteStride": 12
    },
    {
      "buffer": 0,
      "byteOffset": 64512,
      "byteLength": 8064,
      "target": 34962,
      "byteStride": 12
    },
    {
      "buffer": 0,
      "byteOffset": 72576,
      "byteLength": 8064,
      "target": 34962,
      "byteStride": 12
    },
    {
      "buffer": 0,
      "byteOffset": 80640,
      "byteLength": 8064,
      "target": 34962,
      "byteStride": 12
    },
    {
      "buffer": 0,
      "byteOffset": 88704,
      "byteLength": 8064,
      "target": 34962,
      "byteStride": 12
    },
    {
      "buffer": 0,
      "byteOffset": 96768,
      "byteLength": 134784,
      "target": 34962,
      "byteStride": 12
    },
    {
      "buffer": 0,
      "byteOffset": 231552,
      "byteLength": 134784,
      "target": 34962,
      "byteStride": 12
    },
    {
      "buffer": 0,
      "byteOffset": 366336,
      "byteLength": 7128,
      "target": 34962,
      "byteStride": 12
    },
    {
      "buffer": 0,
      "byteOffset": 373464,
      "byteLength": 7128,
      "target": 34962,
      "byteStride": 12
    }
  ],
  "buffers": [
    {
      "byteLength": 380592,
      "uri": "data:application/octet-stream;base64,"
    }
  ],
  "accessors": [
    {
      "bufferView": 0,
      "componentType": 5126,
      "count": 672,
      "max": [
        -83.28146362304688,
        28.186826705932617,
        -118.7960205078125
      ],
      "min": [
        -90.62403106689453,
        20.844255447387695,
        -126.13858795166016
      ],
      "type": "VEC3"
    },
    {
      "bufferView": 1,
      "componentType": 5126,
      "count": 672,
      "max": [
        0.9626373052597046,
        0.9800476431846619,
        0.9626372456550598
      ],
      "min": [
        -0.9626373052597046,
        -0.9800476431846619,
        -0.9626373648643494
      ],
      "type": "VEC3"
    },
    {
      "bufferView": 2,
      "componentType": 5126,
      "count": 672,
      "max": [
        49.47559356689453,
        50.211509704589844,
        129.12002563476562
      ],
      "min": [
        42.13302230834961,
        42.86893844604492,
        121.77745819091797
      ],
      "type": "VEC3"
    },
    {
      "bufferView": 3,
      "componentType": 5126,
      "count": 672,
      "max": [
        0.962637186050415,
        0.9800476431846619,
        0.9626373052597046
      ],
      "min": [
        -0.9626373648643494,
        -0.9800476431846619,
        -0.9626373052597046
      ],
      "type": "VEC3"
    },
    {
      "bufferView": 4,
      "componentType": 5126,
      "count": 672,
      "max": [
        62.43668746948242,
        162.19630432128906,
        126.28170776367188
      ],
      "min": [
        55.094120025634766,
        154.85374450683594,
        118.93914031982422
      ],
      "type": "VEC3"
    },
    {
      "bufferView": 5,
      "componentType": 5126,
      "count": 672,
      "max": [
        0.9626374840736389,
        0.9800476431846619,
        0.9626372456550598
      ],
      "min": [
        -0.9626373052597046,
        -0.9800476431846619,
        -0.9626373052597046
      ],
      "type": "VEC3"
    },
    {
      "bufferView": 6,
      "componentType": 5126,
      "count": 672,
      "max": [
        57.96593475341797,
        162.19630432128906,
        -95.52252197265625
      ],
      "min": [
        50.62336349487305,
        154.85374450683594,
        -102.8650894165039
      ],
      "type": "VEC3"
    },
    {
      "bufferView": 7,
      "componentType": 5126,
      "count": 672,
      "max": [
        0.9626372456550598,
        0.9800476431846619,
        0.9626373052597046
      ],
      "min": [
        -0.9626373648643494,
        -0.9800476431846619,
        -0.9626373052597046
      ],
      "type": "VEC3"
    },
    {
      "bufferView": 8,
      "componentType": 5126,
      "count": 672,
      "max": [
        -68.84404754638672,
        162.19630432128906,
        46.18426513671875
      ],
      "min": [
        -76.18661499023438,
        154.85374450683594,
        38.84169387817383
      ],
      "type": "VEC3"
    },
    {
      "bufferView": 9,
      "componentType": 5126,
      "count": 672,
      "max": [
        0.9626374840736389,
        0.9800476431846619,
        0.9626372456550598
      ],
      "min": [
        -0.9626373052597046,
        -0.9800476431846619,
        -0.9626373052597046
      ],
      "type": "VEC3"
    },
    {
      "bufferView": 10,
      "componentType": 5126,
      "count": 672,
      "max": [
        -13.044175148010254,
        248.2561492919922,
        -27.105894088745117
      ],
      "min": [
        -20.386743545532227,
        240.91358947753906,
        -34.448463439941406
      ],
      "type": "VEC3"
    },
    {
      "bufferView": 11,
      "componentType": 5126,
      "count": 672,
      "max": [
        0.9626373648643494,
        0.9800476431846619,
        0.9626373052597046
      ],
      "min": [
        -0.9626373648643494,
        -0.9800476431846619,
        -0.9626373052597046
      ],
      "type": "VEC3"
    },
    {
      "bufferView": 12,
      "componentType": 5126,
      "count": 11232,
      "max": [
        120.21705627441406,
        328.313232421875,
        200.6999969482422
      ],
      "min": [
        -120.21705627441406,
        -0.699999988079071,
        -200.6999969482422
      ],
      "type": "VEC3"
    },
    {
      "bufferView": 13,
      "componentType": 5126,
      "count": 11232,
      "max": [
        0.8660256862640381,
        1,
        1
      ],
      "min": [
        -0.8660256862640381,
        -1,
        -1
      ],
      "type": "VEC3"
    },
    {
      "bufferView": 14,
      "componentType": 5126,
      "count": 594,
      "max": [
        119.82830047607422,
        327.61322021484375,
        199.33470153808594
      ],
      "min": [
        -119.205810546875,
        0,
        -200.66529846191406
      ],
      "type": "VEC3"
    },
    {
      "bufferView": 15,
      "componentType": 5126,
      "count": 594,
      "max": [
        1,
        1,
        1
      ],
      "min": [
        -1,
        -1,
        -1
      ],
      "type": "VEC3"
    }
  ],
  "materials": [
    {
      "pbrMetallicRoughness": {
        "metallicFactor": 0.5,
        "roughnessFactor": 0.5
      },
      "emissiveFactor": [
        0.36470588235294116,
        0.7294117647058823,
        0.23137254901960785
      ],
      "name": "Mat.1"
    },
    {
      "pbrMetallicRoughness": {
        "baseColorFactor": [
          0.8549019607843137,
          0.4235294117647059,
          0.396078431372549,
          1
        ],
        "metallicFactor": 0.5,
        "roughnessFactor": 0.5
      },
      "emissiveFactor": [
        0.8549019607843137,
        0.4235294117647059,
        0.396078431372549
      ],
      "name": "Mat"
    },
    {
      "pbrMetallicRoughness": {
        "baseColorFactor": [
          0.28627450980392155,
          0.6392156862745098,
          0.2823529411764706,
          1
        ],
        "metallicFactor": 0.5,
        "roughnessFactor": 0.5
      },
      "emissiveFactor": [
        0.00823529411764706,
        0.0023529411764705885,
        0.0015686274509803923
      ],
      "name": "default"
    }
  ],
  "meshes": [
    {
      "primitives": [
        {
          "mode": 4,
          "attributes": {
            "POSITION": 0,
            "NORMAL": 1
          },
          "material": 0
        }
      ]
    },
    {
      "primitives": [
        {
          "mode": 4,
          "attributes": {
            "POSITION": 2,
            "NORMAL": 3
          },
          "material": 0
        }
      ]
    },
    {
      "primitives": [
        {
          "mode": 4,
          "attributes": {
            "POSITION": 4,
            "NORMAL": 5
          },
          "material": 0
        }
      ]
    },
    {
      "primitives": [
        {
          "mode": 4,
          "attributes": {
            "POSITION": 6,
            "NORMAL": 7
          },
          "material": 0
        }
      ]
    },
    {
      "primitives": [
        {
          "mode": 4,
          "attributes": {
            "POSITION": 8,
            "NORMAL": 9
          },
          "material": 0
        }
      ]
    },
    {
      "primitives": [
        {
          "mode": 4,
          "attributes": {
            "POSITION": 10,
            "NORMAL": 11
          },
          "material": 0
        }
      ]
    },
    {
      "primitives": [
        {
          "mode": 4,
          "attributes": {
            "POSITION": 12,
            "NORMAL": 13
          },
          "material": 1
        }
      ]
    },
    {
      "primitives": [
        {
          "mode": 4,
          "attributes": {
            "POSITION": 14,
            "NORMAL": 15
          },
          "material": 2
        }
      ]
    }
  ]
}