{"accessors" : [{"bufferView" : 0, "byteOffset" : 0, "componentType" : 5123, "count" : 11328, "type" : "SCALAR", "max" : [9692], "min" : [0]}, {"bufferView" : 1, "byteOffset" : 0, "componentType" : 5126, "count" : 9693, "type" : "VEC3", "max" : [120.2169418334961, 328.313232421875, 245.6999969482422], "min" : [-120.21694946289062, -0.7000020146369934, -200.69989013671875], "name" : "POSITION"}], "asset" : {"generator" : "Aspose.3D 22.7", "version" : "2.0"}, "buffers" : [{"uri" : "data:application/octet-stream;base64,", "byteLength" : 158600}], "bufferViews" : [{"buffer" : 0, "byteOffset" : 0, "byteLength" : 22656, "target" : 34963}, {"buffer" : 0, "byteOffset" : 22660, "byteLength" : 135936, "byteStride" : 12, "target" : 34962}], "meshes" : [{"primitives" : [{"attributes" : {"POSITION" : 1}, "indices" : 0, "mode" : 4}], "name" : ""}], "nodes" : [{"mesh" : 0, "name" : "HAZ_wire"}], "scene" : 0, "scenes" : [{"nodes" : [0]}]}