{
    "accessors": [
    {
        "bufferView": 0,
        "byteOffset": 0,
        "componentType": 5123,
        "count": 672,
        "type": "SCALAR",
        "max": [544],
        "min": [0]
    },
    {
        "bufferView": 1,
        "byteOffset": 0,
        "componentType": 5126,
        "count": 545,
        "type": "VEC3",
        "max": [-13.044175148010254, 248.2561492919922, -27.105894088745117],
        "min": [-20.386743545532227, 240.91358947753906, -34.448463439941406],
        "name": "POSITION"
    },
    {
        "bufferView": 0,
        "byteOffset": 1344,
        "componentType": 5123,
        "count": 672,
        "type": "SCALAR",
        "max": [544],
        "min": [0]
    },
    {
        "bufferView": 2,
        "byteOffset": 0,
        "componentType": 5126,
        "count": 545,
        "type": "VEC3",
        "max": [-68.84404754638672, 162.19630432128906, 46.18426513671875],
        "min": [-76.18661499023438, 154.85374450683594, 38.84169387817383],
        "name": "POSITION"
    },
    {
        "bufferView": 0,
        "byteOffset": 2688,
        "componentType": 5123,
        "count": 672,
        "type": "SCALAR",
        "max": [544],
        "min": [0]
    },
    {
        "bufferView": 3,
        "byteOffset": 0,
        "componentType": 5126,
        "count": 545,
        "type": "VEC3",
        "max": [57.96593475341797, 162.19630432128906, -95.52252197265625],
        "min": [50.62336349487305, 154.85374450683594, -102.8650894165039],
        "name": "POSITION"
    },
    {
        "bufferView": 0,
        "byteOffset": 4032,
        "componentType": 5123,
        "count": 672,
        "type": "SCALAR",
        "max": [544],
        "min": [0]
    },
    {
        "bufferView": 4,
        "byteOffset": 0,
        "componentType": 5126,
        "count": 545,
        "type": "VEC3",
        "max": [62.43668746948242, 162.19630432128906, 126.28170776367188],
        "min": [55.094120025634766, 154.85374450683594, 118.93914031982422],
        "name": "POSITION"
    },
    {
        "bufferView": 0,
        "byteOffset": 5376,
        "componentType": 5123,
        "count": 672,
        "type": "SCALAR",
        "max": [544],
        "min": [0]
    },
    {
        "bufferView": 5,
        "byteOffset": 0,
        "componentType": 5126,
        "count": 545,
        "type": "VEC3",
        "max": [49.47559356689453, 50.211509704589844, 129.12002563476562],
        "min": [42.13302230834961, 42.86893844604492, 121.77745819091797],
        "name": "POSITION"
    },
    {
        "bufferView": 0,
        "byteOffset": 6720,
        "componentType": 5123,
        "count": 672,
        "type": "SCALAR",
        "max": [544],
        "min": [0]
    },
    {
        "bufferView": 6,
        "byteOffset": 0,
        "componentType": 5126,
        "count": 545,
        "type": "VEC3",
        "max": [-83.28146362304688, 28.186826705932617, -118.7960205078125],
        "min": [-90.62403106689453, 20.844255447387695, -126.13858795166016],
        "name": "POSITION"
    },
    {
        "bufferView": 0,
        "byteOffset": 8064,
        "componentType": 5123,
        "count": 11232,
        "type": "SCALAR",
        "max": [9607],
        "min": [0]
    },
    {
        "bufferView": 7,
        "byteOffset": 0,
        "componentType": 5126,
        "count": 9608,
        "type": "VEC3",
        "max": [120.21705627441406, 328.313232421875, 200.6999969482422],
        "min": [-120.21705627441406, -0.699999988079071, -200.6999969482422],
        "name": "POSITION"
    }],
    "asset":
    {
        "generator": "Aspose.3D 22.3",
        "version": "2.0"
    },
    "buffers": [
    {
        "uri": "data:application/octet-stream;base64,",
        "byteLength": 213728
    }],
    "bufferViews": [
    {
        "buffer": 0,
        "byteOffset": 0,
        "byteLength": 30528,
        "target": 34963
    },
    {
        "buffer": 0,
        "byteOffset": 30532,
        "byteLength": 8064,
        "byteStride": 12,
        "target": 34962
    },
    {
        "buffer": 0,
        "byteOffset": 38600,
        "byteLength": 8064,
        "byteStride": 12,
        "target": 34962
    },
    {
        "buffer": 0,
        "byteOffset": 46668,
        "byteLength": 8064,
        "byteStride": 12,
        "target": 34962
    },
    {
        "buffer": 0,
        "byteOffset": 54736,
        "byteLength": 8064,
        "byteStride": 12,
        "target": 34962
    },
    {
        "buffer": 0,
        "byteOffset": 62804,
        "byteLength": 8064,
        "byteStride": 12,
        "target": 34962
    },
    {
        "buffer": 0,
        "byteOffset": 70872,
        "byteLength": 8064,
        "byteStride": 12,
        "target": 34962
    },
    {
        "buffer": 0,
        "byteOffset": 78940,
        "byteLength": 134784,
        "byteStride": 12,
        "target": 34962
    }],
    "meshes": [
    {
        "primitives": [
        {
            "attributes":
            {
                "POSITION": 1
            },
            "indices": 0,
            "mode": 4
        }],
        "name": ""
    },
    {
        "primitives": [
        {
            "attributes":
            {
                "POSITION": 3
            },
            "indices": 2,
            "mode": 4
        }],
        "name": ""
    },
    {
        "primitives": [
        {
            "attributes":
            {
                "POSITION": 5
            },
            "indices": 4,
            "mode": 4
        }],
        "name": ""
    },
    {
        "primitives": [
        {
            "attributes":
            {
                "POSITION": 7
            },
            "indices": 6,
            "mode": 4
        }],
        "name": ""
    },
    {
        "primitives": [
        {
            "attributes":
            {
                "POSITION": 9
            },
            "indices": 8,
            "mode": 4
        }],
        "name": ""
    },
    {
        "primitives": [
        {
            "attributes":
            {
                "POSITION": 11
            },
            "indices": 10,
            "mode": 4
        }],
        "name": ""
    },
    {
        "primitives": [
        {
            "attributes":
            {
                "POSITION": 13
            },
            "indices": 12,
            "mode": 4
        }],
        "name": ""
    }],
    "nodes": [
    {
        "mesh": 0,
        "name": "1"
    },
    {
        "mesh": 1,
        "name": "2"
    },
    {
        "mesh": 2,
        "name": "3"
    },
    {
        "mesh": 3,
        "name": "4"
    },
    {
        "mesh": 4,
        "name": "5"
    },
    {
        "mesh": 5,
        "name": "6"
    },
    {
        "mesh": 6,
        "name": "haz"
    }],
    "scene": 0,
    "scenes": [
    {
        "nodes": [ 6]
    }]
}
